<?xml version="1.0" encoding="utf-8"?>
<!-- Generator: Adobe Illustrator 27.5.0, SVG Export Plug-In . SVG Version: 6.00 Build 0)  -->
<svg version="1.1" id="Layer_1" xmlns="http://www.w3.org/2000/svg" xmlns:xlink="http://www.w3.org/1999/xlink" x="0px" y="0px"
	 viewBox="0 0 1200 1200" style="enable-background:new 0 0 1200 1200;" xml:space="preserve">
<style type="text/css">
	.st0{fill:#231F20;}
	.st1{fill:#F7ACB4;}
	.st2{fill:#985BFF;}
	.st3{fill:#A7A9AC;}
	.st4{fill:#BCBEC0;}
	.st5{fill:#414042;}
	.st6{fill:#FFFFFF;}
	.st7{fill:#13101E;}
	.st8{fill:#939598;}
</style>
<g>
	<g>
		<g>
			<path class="st0" d="M826.1,379.4c7,14,18.8,22.3,26.3,18.6c7.5-3.8,7.9-18.2,0.9-32.2c-7-14-18.8-22.3-26.3-18.6
				C819.5,350.9,819,365.4,826.1,379.4z"/>
			<path class="st0" d="M849.8,374.2c15.6,12.6,33.7,16,40.4,7.7c6.8-8.3-0.4-25.3-15.9-37.9c-15.6-12.6-33.7-16-40.4-7.7
				C827,344.6,834.2,361.6,849.8,374.2z"/>
			<path class="st0" d="M865.4,352.8c19.9,1.9,36.9-5.3,37.9-15.9c1-10.7-14.3-20.9-34.2-22.8c-19.9-1.9-36.9,5.2-37.9,15.9
				C830.1,340.7,845.4,350.9,865.4,352.8z"/>
			<path class="st0" d="M848.6,368.1c5.1,14.8,2.7,29.1-5.2,31.8c-8,2.7-18.5-7.1-23.6-21.9c-5.1-14.8-2.8-29.1,5.2-31.8
				C833,343.5,843.5,353.3,848.6,368.1z"/>
			<path class="st0" d="M828.3,381.4c-1.9,19.9-12.1,35.2-22.8,34.2c-10.7-1-17.8-18-15.9-37.9c1.9-19.9,12.1-35.2,22.8-34.2
				C823.1,344.5,830.2,361.5,828.3,381.4z"/>
			<path class="st0" d="M802.1,377.6c-12.6,15.5-29.6,22.7-37.9,15.9c-8.4-6.8-4.9-24.8,7.7-40.4c12.6-15.5,29.6-22.7,38-15.9
				C818.2,343.9,814.7,362,802.1,377.6z"/>
			<path class="st1" d="M647.2,770.4c0.3,0.9,0.6,1.9,0.9,2.8l30.5,98.9c7.3,23.3,32.1,36.3,55.4,29c0.5-0.2,1-0.3,1.5-0.6
				c22.3-7.9,34.6-32.1,27.5-54.9l-25.7-82.3v-0.1l-29.1-92.8c-2.4-7.8-6.8-14.3-12.4-19.3c-0.1-0.2-0.1-0.2-0.2-0.2l-17.9,35
				l-29.4,57.5C645,752.4,644.8,761.8,647.2,770.4z"/>
			<path class="st1" d="M647.2,770.4c0.3,0.9,0.6,1.9,0.9,2.8c3.5,10.2,10.9,19.2,21.3,24.6c0.5,0.3,0.9,0.5,1.4,0.7
				c21.4,10.2,47.2,1.7,58.2-19.5l8.1-15.6v-0.1l76.5-147.2c11.3-21.7,2.8-48.3-18.9-59.6c-21.7-11.3-48.3-2.8-59.6,18.8l-39.4,75.9
				l-18.1,34.8l-27.1,52.2c-0.9,1.7-1.7,3.5-2.3,5.3C645,752.4,644.8,761.8,647.2,770.4z"/>
			<polygon class="st1" points="681.2,867.1 651.4,910 718.6,906.5 748.3,872.6 			"/>
			<path class="st2" d="M767.7,881.7L753,925h-15.7l-0.4-24.5L718,925h-86.5c0.4-10.5,8.9-17.2,14.1-20.4c0,0,0.1,0,0.1,0
				c0.7-0.4,1.3-0.7,1.8-1c0.2-0.1,0.4-0.2,0.6-0.3c0.4-0.2,0.8-0.4,1.3-0.6c0.2-0.1,0.3-0.2,0.3-0.2c8.5-3.9,17.2-5.6,25.5-5.8
				c1,0,2,0,3,0l0,0l48.5,0.2l39.8-42.6l2.2,15.7C769.2,873.2,768.7,878.5,767.7,881.7z"/>
			<path class="st1" d="M816.5,901.8c23.7,0,43.3-18.8,44.2-42.6l6.6-183.4c0.9-24.4-18.2-44.9-42.6-45.8
				c-24.5-0.9-44.9,18.2-45.7,42.6L772.3,856c-0.9,24.4,18.2,44.9,42.6,45.8C815.5,901.8,816,901.8,816.5,901.8z"/>
			<path class="st1" d="M776,854.4c0,0-20.3,32.8-38.8,61.4l74.3,1.4l29.1-39.7L776,854.4z"/>
			<path class="st3" d="M721.2,441.5v60.3h121.5l57.9-72.2l-1.3-2.2h-0.4c0,0-11.7-29.4-61.6-34.2L837,391l-71.2,0.1
				c-16.7,0-26.7,7.9-32.2,17.6l-6.9,12.1C723.6,426.1,721.2,435.4,721.2,441.5z"/>
			<path class="st4" d="M842.7,501.7c0,0,8.7,9.2,19.5,20.5c10.7,11.3,18.3,35.1,16.8,53.2L864,783.6l-228.5-0.7l85.7-281.1H842.7z"
				/>
			<path id="neck_00000182515994758825058140000011930149385276740487_" class="st1" d="M798.5,405.2c-7.8,0.3-15.2-0.1-21.9-1.1
				c-12-1.8-16-8.8-9.6-11.4c3.7-1.5,7.5-3,11.7-4.3c0.8-0.3,1.4-0.5,2.1-0.7c2.8-1.1,7.6-3.8,8.2-9.8l0.3-3.3l0.6-6.5l0.3-3.1
				l1.6-9.7l37.5-23.2l8.2,55.5c1.6,1.9,3.1,4,4.6,6.1C833.3,399.8,817.2,404.4,798.5,405.2z"/>
			<g>
				<g>
					<path class="st1" d="M839.7,327.5l-3.8,14.6c-1.8,7-5.5,13-10.3,17.6c-9.2,8.9-22.6,13-35.9,9.5l-3.6-0.9
						c-20.2-5.2-32.4-25.9-27.1-46.1l3.8-14.7c2.3-8.6,7.3-15.8,14-20.8c8.9-6.7,20.6-9.3,32.2-6.3l3.5,0.9
						C832.8,286.6,845,307.3,839.7,327.5z"/>
					<path class="st0" d="M839.7,327.5l-3.8,14.6c-0.9,3.3-2.2,6.5-3.8,9.3c-15.8-3.1-17.7-18.2-17.7-18.2l-1.4,2
						c-0.1-3,3.7-4.1,3.7-4.1c-28.6-7.6-38.6-33.7-40-44.5c8.9-6.7,20.6-9.3,32.2-6.3l3.5,0.9C832.8,286.6,845,307.3,839.7,327.5z"
						/>
				</g>
			</g>
			<path class="st1" d="M832.9,342.4c-1.6,7-7.7,11.7-13.6,10.3c-5.9-1.3-9.3-8.2-7.7-15.2s7.7-11.7,13.6-10.3
				C831.1,328.6,834.6,335.4,832.9,342.4z"/>
			<g id="face_00000018920305376245741600000014265376849461110663_">
				<path class="st0" d="M780.3,337.7c-0.1,0-0.2,0-0.3,0l-8.8-2.2c-0.4-0.1-0.7-0.4-0.8-0.7c-0.1-0.4-0.1-0.8,0.1-1.1l8-12.4
					c0.4-0.6,1.1-0.7,1.7-0.4c0.6,0.4,0.7,1.1,0.4,1.7l-7,11l7.2,1.8c0.7,0.2,1.1,0.8,0.9,1.5C781.4,337.4,780.9,337.7,780.3,337.7z
					"/>
				<path class="st0" d="M779,349.8c-4.9,0-8.7-3.1-8.7-3.2c-0.5-0.4-0.6-1.2-0.1-1.7c0.4-0.5,1.2-0.6,1.7-0.1
					c0.3,0.3,7.6,6.3,14.5-0.9c0.5-0.5,1.2-0.5,1.7,0s0.5,1.2,0,1.7C785,348.8,781.8,349.8,779,349.8z"/>
				<path class="st0" d="M763.1,319.8c0.4-1.6,2.1-2.6,3.8-2.2c1.6,0.4,2.6,2.1,2.2,3.8c-0.4,1.6-2.1,2.6-3.8,2.1
					C763.6,323.2,762.6,321.5,763.1,319.8z"/>
				<path class="st0" d="M790.2,327.3c0.5-1.6,2.1-2.6,3.8-2.2c1.6,0.4,2.6,2.1,2.2,3.8c-0.5,1.6-2.1,2.6-3.8,2.2
					C790.8,330.6,789.8,328.9,790.2,327.3z"/>
			</g>
			<path class="st0" d="M796.2,372.1c-2.2,0-4.6-0.2-7-0.6c-0.8-0.1-1.3-0.8-1.1-1.6c0.1-0.8,0.9-1.2,1.6-1.1
				c15.6,2.6,25.5-5,25.6-5.1c0.6-0.5,1.5-0.4,1.9,0.2c0.5,0.6,0.4,1.5-0.2,1.9C816.5,366.1,808.9,372.1,796.2,372.1z"/>
			<path class="st0" d="M823.9,344.7c-0.3,0-0.5-0.1-0.8-0.2l-5-3.3c-0.4-0.2-0.6-0.6-0.6-1.1c0-0.4,0.1-0.9,0.5-1.1l5.6-5
				c0.6-0.5,1.4-0.5,2,0.1c0.5,0.6,0.5,1.4-0.1,2l-4.3,3.8l3.5,2.3c0.6,0.4,0.8,1.3,0.4,1.9C824.8,344.4,824.3,344.7,823.9,344.7z"
				/>
			<path class="st2" d="M861.8,885.4l-14.7,43.3h-15.7l-0.4-24.5l-19,24.5h-86.4c0.4-10.5,8.9-17.2,14.1-20.4c0.1,0,0.1,0,0.1,0
				c0.7-0.4,1.3-0.7,1.8-1c0.2-0.1,0.4-0.2,0.6-0.3c0.4-0.2,0.8-0.4,1.3-0.6c0.2-0.1,0.3-0.1,0.3-0.1c8.5-4,17.2-5.6,25.5-5.9
				c1,0,2,0,3,0l0.1,0l48.5,0.2l39.8-42.6l2.2,15.7C863.4,876.9,862.9,882.2,861.8,885.4z"/>
		</g>
		<path class="st1" d="M690.8,536.9c-17.7,0-32.2-14.1-32.7-31.9c-0.5-18,13.8-33,31.8-33.5l99.3-2.5l68.3-46.4
			c14.9-10.1,35.3-6.2,45.4,8.7c10.1,14.9,6.2,35.3-8.7,45.4l-76.2,51.7c-5.2,3.5-11.3,5.5-17.5,5.6l-108.9,2.7
			C691.3,536.9,691.1,536.9,690.8,536.9z"/>
		<path class="st1" d="M714,530.3c5.8-9.2,9.4-18.3,7.7-29.2c-1.6-10.7-6.8-21.7-15.8-28.2c-4.7-3.4-9.7-5.2-15.4-5.6
			c-5.9-0.4-13.5,0.8-18.9-2.3c-3.8-2.2-10-8.9-15-6.2c-9.7,5.4,1.7,21.1,2.5,27.6c1.4,10.9-4.8,12.9-12.2,19.7
			c-5.4,4.8-15.7,10.9-13.6,19.7c2.1,9.5,10.9,9.5,17.7,3.4c-8.2,11.6-3.4,23.1,10.9,15c-0.5,15.6,28.4,1.7,34.2-1.1
			C703.1,539.9,709.9,536.9,714,530.3z"/>
		<path class="st0" d="M649.5,531.9c-0.5,0-1-0.3-1.2-0.8c-0.3-0.7,0-1.5,0.6-1.8c0.1,0,8.7-4.1,15.4-7.7c0.7-0.4,1.5-0.1,1.8,0.6
			c0.4,0.7,0.1,1.5-0.6,1.8c-6.8,3.6-15.4,7.7-15.5,7.7C649.9,531.8,649.7,531.9,649.5,531.9z"/>
		<path class="st0" d="M662.8,545.2c-0.5,0-1-0.3-1.2-0.8c-0.3-0.7,0-1.5,0.6-1.8c0.1,0,8.7-4.1,15.4-7.7c0.7-0.3,1.5-0.1,1.8,0.6
			c0.4,0.7,0.1,1.5-0.6,1.8c-6.8,3.6-15.4,7.7-15.5,7.7C663.2,545.1,663,545.2,662.8,545.2z"/>
	</g>
	<rect x="533.8" y="592.1" class="st5" width="429" height="337.9"/>
	<g>
		<rect x="960.6" y="604.5" class="st0" width="65.7" height="325"/>
		<polygon class="st0" points="1058.4,578.2 1058.4,623.6 1026.2,623.6 1026.2,625.4 533.8,625.4 533.8,623.6 510.2,623.6 
			510.2,578.2 		"/>
		<rect x="533.8" y="623.6" class="st6" width="492.5" height="10.9"/>
	</g>
</g>
<g>
	<g>
		<g>
			<g>
				<g>
					<g>
						<path class="st0" d="M622.9,535.3c-0.8,0-1.7-0.2-2.5-0.5c-69-30.9-118.6-13.7-142-0.7c-2.9,1.6-6.6,0.6-8.2-2.3
							c-1.6-2.9-0.6-6.6,2.3-8.2c25.4-14.1,79-32.8,152.8,0.3c3.1,1.4,4.4,4.9,3,8C627.4,533.9,625.2,535.3,622.9,535.3z"/>
						<path class="st0" d="M548.6,510.7c-2.5,0-4.5-2-4.5-4.5v-18.9c0-2.5,2-4.5,4.5-4.5c8.8,0,15.9-7.1,15.9-15.9
							c0-8.8-7.1-15.9-15.9-15.9c-2.5,0-4.5-2-4.5-4.5c0-2.5,2-4.5,4.5-4.5c13.8,0,25,11.2,25,25c0,12.2-8.8,22.4-20.4,24.5v14.8
							C553.1,508.7,551.1,510.7,548.6,510.7z"/>
					</g>
				</g>
			</g>
		</g>
		<polygon class="st3" points="677.2,642 628.2,524.2 580.5,505.1 548.3,566.2 516.1,505.1 468.4,524.2 419.4,642 465.7,642.6 
			471.6,630.1 473.9,707.1 541,707.1 555.6,707.1 622.7,707.1 625,630.1 630.9,642.6 		"/>
	</g>
	<g>
		<g>
			<path class="st0" d="M364.5,909c0.7,0,1.4,0,2-0.1c21-1.1,37.1-19,35.9-40l-14.3-266.1c-1.1-21-19.1-37-40-35.9
				c-21,1.1-37.1,19-35.9,40L326.6,873C327.6,893.3,344.4,909,364.5,909z"/>
			<path class="st0" d="M263.5,906.6c0.7,0.1,1.3,0.2,2,0.2c20.9,2,36.2-10.5,38.1-31.4l28.2-268.2c2-20.9-13.5-39.4-34.3-41.4
				c-20.9-2-39.4,13.4-41.4,34.3l-27,276.7C227.3,897,243.6,903.6,263.5,906.6z"/>
			<path class="st7" d="M324.1,825.5c-1.1,0-2-0.9-2-1.9l-8.2-164.9L296.2,647c-0.9-0.6-1.2-1.9-0.6-2.8c0.6-0.9,1.9-1.2,2.8-0.6
				l19.4,12.8l8.3,167C326.2,824.5,325.3,825.5,324.1,825.5C324.2,825.5,324.2,825.5,324.1,825.5z"/>
			<g>
				<g id="shoe_00000162319995330572208680000005571946373408080058_">
					<g>
						<path class="st3" d="M339.7,931.5c-7.9,0-14.2-6.4-14.2-14.2l0.2-35.7l0-3.7v-3l13.6,0l61.5,0.2c0.2,0.1,0.4,0.2,0.6,0.2
							c67.2,29.7,70.4,56.2,70.4,56.2L339.7,931.5L339.7,931.5z"/>
					</g>
					<g>
						<path class="st8" d="M339.7,931.5c-7.9,0-14.2-6.4-14.2-14.2l0.2-35.7l0-3.7v-3l13.6,0l61.5,0.2c0.2,0.1,0.4,0.2,0.6,0.2
							c67.2,29.7,70.4,56.2,70.4,56.2L339.7,931.5L339.7,931.5z"/>
					</g>
				</g>
				<g>
					<path class="st0" d="M404.4,898.4c-0.7,0-1.3-0.3-1.8-0.8c-0.9-1-0.8-2.5,0.2-3.4l14.3-12.7c1-0.9,2.5-0.8,3.4,0.2
						c0.9,1,0.8,2.5-0.2,3.4L406,897.8C405.5,898.2,405,898.4,404.4,898.4z"/>
					<path class="st0" d="M412.6,902.9c-0.7,0-1.3-0.3-1.8-0.8c-0.9-1-0.8-2.5,0.2-3.4l14.2-12.7c1-0.9,2.5-0.8,3.4,0.2
						c0.9,1,0.8,2.5-0.2,3.4l-14.2,12.7C413.8,902.7,413.2,902.9,412.6,902.9z"/>
					<path class="st0" d="M421.5,907c-0.7,0-1.3-0.3-1.8-0.8c-0.9-1-0.8-2.5,0.2-3.4l14.2-12.7c1-0.9,2.5-0.8,3.4,0.2
						c0.9,1,0.8,2.5-0.2,3.4l-14.2,12.7C422.7,906.8,422.1,907,421.5,907z"/>
				</g>
			</g>
			<g>
				<g id="shoe_00000176762247596392858370000006291962648192273537_">
					<g>
						<path class="st3" d="M290.2,931.5c7.9,0,14.2-6.4,14.2-14.2l-0.2-35.7l0-3.7v-3l-13.6,0l-61.5,0.2c-0.2,0.1-0.4,0.2-0.6,0.2
							C161.3,905,158,931.6,158,931.6L290.2,931.5L290.2,931.5z"/>
					</g>
					<g>
						<path class="st8" d="M290.2,931.5c7.9,0,14.2-6.4,14.2-14.2l-0.2-35.7l0-3.7v-3l-13.6,0l-61.5,0.2c-0.2,0.1-0.4,0.2-0.6,0.2
							C161.3,905,158,931.6,158,931.6L290.2,931.5L290.2,931.5z"/>
					</g>
				</g>
				<g>
					<path class="st0" d="M225.5,898.4c-0.6,0-1.1-0.2-1.6-0.6l-14.3-12.7c-1-0.9-1.1-2.4-0.2-3.4c0.9-1,2.4-1.1,3.4-0.2l14.3,12.7
						c1,0.9,1.1,2.4,0.2,3.4C226.8,898.1,226.1,898.4,225.5,898.4z"/>
					<path class="st0" d="M217.2,902.9c-0.6,0-1.1-0.2-1.6-0.6l-14.2-12.7c-1-0.9-1.1-2.4-0.2-3.4c0.9-1,2.4-1.1,3.4-0.2l14.2,12.7
						c1,0.9,1.1,2.4,0.2,3.4C218.5,902.6,217.9,902.9,217.2,902.9z"/>
					<path class="st0" d="M208.3,907c-0.6,0-1.1-0.2-1.6-0.6l-14.2-12.7c-1-0.9-1.1-2.4-0.2-3.4c0.9-1,2.4-1.1,3.4-0.2l14.2,12.7
						c1,0.9,1.1,2.4,0.2,3.4C209.6,906.7,209,907,208.3,907z"/>
				</g>
			</g>
		</g>
		<g id="head_00000144308286906608194930000009886815658149542313_">
			<g>
				<path class="st1" d="M283.2,321.6l1.5,17.3c1.2,14,8.9,25.8,19.7,32.9c7.8,5.1,17.3,7.7,27.3,6.8l4.2-0.3c2-0.2,3.8-0.5,5.7-0.9
					c0.4,0,0.8-0.1,1.2-0.2c21.9-5.6,34.8-23.2,32.8-46l-1.2-13.8l-0.3-3.4c-0.5-6.1-2.2-11.7-4.9-16.9c-8-14.9-24.3-24.5-42.3-23
					l-1.1,0.2l-3.1,0.3c-13.7,1.2-25.4,8.6-32.5,19.2C285.1,301.6,282.4,311.4,283.2,321.6z"/>
				<path class="st1" d="M311.7,429.4c13.7,2.7,27-6.3,29.7-20c0.7-3.7,0.6-7.4-0.2-10.9l-12.7-51.7c-1.8-7.3-9.1-11.7-16.4-9.9
					c-5.3,1.3-13.2-0.6-14.2,4.4l-5.9,59l1.7-10.2l-1.9,9.7C289,413.4,297.9,426.7,311.7,429.4z"/>
				<path class="st1" d="M382.1,330.5c3.4,4,2.9,7.9-1.2,8.8l-7.3,1.5l-2.3-23L382.1,330.5z"/>
			</g>
			<path class="st0" d="M333.2,379.4c-4.7,0-10-0.8-15.6-3.1c-0.6-0.2-0.9-1-0.6-1.6c0.2-0.6,1-0.9,1.5-0.6
				c15.5,6.4,29.4,0.1,29.5,0c0.6-0.3,1.3,0,1.6,0.6c0.3,0.6,0,1.3-0.6,1.6C348.6,376.5,342.2,379.4,333.2,379.4z"/>
			<path class="st0" d="M370.7,330c-0.1,0-0.3,0-0.4-0.1l-8.1-2.6c-0.4-0.1-0.8-0.5-0.9-1c-0.1-0.5,0.1-0.9,0.4-1.2l7.3-6
				c0.5-0.4,1.4-0.4,1.8,0.2c0.4,0.5,0.4,1.4-0.2,1.8l-5.4,4.5l5.9,1.8c0.7,0.2,1.1,0.9,0.8,1.6C371.8,329.7,371.3,330,370.7,330z"
				/>
			<g>
				<path class="st0" d="M321.7,333.9c-0.3,0-0.5-0.1-0.7-0.3l-7.4-5.9c-0.5-0.4-0.6-1.2-0.2-1.7c0.4-0.5,1.2-0.6,1.7-0.2l7.4,5.9
					c0.5,0.4,0.6,1.2,0.2,1.7C322.4,333.7,322,333.9,321.7,333.9z"/>
				<path class="st0" d="M318.7,343.3c-2,0-3.9-0.4-5.7-1.3c-3.2-1.5-5.7-4.2-6.9-7.6c-1.2-3.4-1-7,0.5-10.2
					c1.5-3.2,4.2-5.7,7.6-6.9c3.4-1.2,7-1,10.3,0.5c0.6,0.3,0.8,1,0.6,1.6c-0.3,0.6-1,0.8-1.6,0.6c-2.6-1.3-5.6-1.4-8.4-0.4
					c-2.8,1-5,3-6.3,5.7c-1.3,2.6-1.4,5.6-0.4,8.4c1,2.8,3,5,5.7,6.3c2.7,1.3,5.7,1.4,8.4,0.4c0.6-0.2,1.3,0.1,1.5,0.7
					c0.2,0.6-0.1,1.3-0.7,1.5C321.7,343.1,320.2,343.3,318.7,343.3z"/>
			</g>
			<path class="st0" d="M382.6,268.5c-3.3-6.7-14.1-8.3-25.5-4.3c0.8-5.6-0.4-10.3-3.9-12.5c-5.9-3.8-15.9,1.3-22.4,11.4
				c-0.8,1.3-1.5,2.5-2.1,3.8c-2.9-5.7-7.5-9.1-11.3-7.9c-2.8,0.9-4.4,4-4.8,8c-7.1-6.3-15.4-8.5-20-4.7c-3.1,2.6-3.7,7.4-2.3,12.7
				c-9.5-1.8-17.9,0.4-20.2,6.1c-2,4.9,1,11,7,16c-9.3,3-15.4,8.3-14.8,13.5c0.4,3.4,3.6,6.1,8.4,7.9c-1.3,3.3-1.5,6.6-0.1,9.5
				c1.5,3.1,4.6,5.1,8.4,6.1c-3.7,5.7-4.9,10.8-2.6,13.2c1.7,1.8,5.2,1.6,9.2-0.2c-2.9,6-2.9,12,0.6,14.8c4.4,3.4,12.5,0.4,18.1-6.9
				c5-6.4,6.3-13.9,3.4-17.9l0.3-0.1c-2.7-4.2-2.6-7.8-1.5-10.7c0.1-0.2,0.2-0.5,0.3-0.8c2.2-4.5,6.9-7,6.9-7l0.7-0.1l0.4-0.4
				c4.7-1,13.2-1,14.9,10.1v3.8c0,3.1,2.5,5.5,5.5,5.5c3.1,0,5.5-2.5,5.5-5.5v-16c4.4-1,9.6-4.9,9.4-18c4.8-0.2,10.2-1.5,15.5-4.1
				C378.8,287.4,386.4,276.1,382.6,268.5z"/>
		</g>
		<path class="st1" d="M481.1,445.2c2.7-13.6,20-20,21.8-34.5c7.3,0,12.7,6.4,12.7,12.7c9.1-5.4,27.2-11.8,25.4,5.4
			c10.9-3.6,15.4,8.2,10,16.4c24.5,10-18.2,44.5-31.8,44.5c-23.6,0-23.6-33.6-37.2-42.7L481.1,445.2z"/>
		<path class="st7" d="M523.9,488.4c-1.4,1.7-3.1,3.2-4.9,4.6l-57.9,42.9c-5.8,4.3-12.6,6.4-19.5,6.4c-7.9,0-15.7-2.8-21.9-8.4
			l-71.5-64.7c-13.4-12.1-14.4-32.7-2.3-46.1c12.1-13.4,32.7-14.4,46.1-2.3l51.6,46.7l36.3-27c1.9-1.4,3.8-2.5,5.8-3.4L523.9,488.4z
			"/>
		<polygon class="st4" points="290.9,403.9 316.8,423.4 343.1,405.7 343.1,593.2 284.6,593.2 		"/>
		<path class="st1" d="M215.3,619.3c1.4,6.1,6.3,10.1,8.7,15.7c2.6,6.1-2.3,9.9-8.6,8.5c-2.7-0.6-7-3.8-9.9-2.8
			c-7.3,2.4-6.1,10.4-9.1,18.3c-8.5,20.7-24.3,14-20.7-6.7c-2.4,20.7-23.7,17-19.5-4.3c-4.3,18.3-12.2-4.3-12.2-11.6
			c0-11.6,2.4-30.4,9.7-40.2c6.5-8.9,23.6-0.5,31.6,1.2c6.4,1.4,14,0.1,20,3.2C214.3,605,212.4,611.4,215.3,619.3z"/>
		<path class="st7" d="M256.2,410.7c-14.2,5-25.6,21.2-25.4,36.3l-0.2,182.5l61.9,0.9L292.3,398L256.2,410.7z"/>
		<path class="st7" d="M376.5,410.7c14.2,5,25.6,21.2,25.4,36.3l0.2,182.5l-62,0.9l0.2-232.4L376.5,410.7z"/>
		<path class="st7" d="M284.5,468.3l-52,56.1l-17.2,79.3c-0.2,0.7-0.3,1.4-0.5,2.1l-64.1-10c0-2,0.3-4,0.7-6l19.1-88.1
			c1.2-5.7,4-11,8-15.3l58.1-62.6c21.6-20.4,32.9-14,46.2-1.7C296,434.4,290.8,458.2,284.5,468.3z"/>
		<path class="st7" d="M531,437.9c-0.4,0-0.8-0.2-1.1-0.5c-0.5-0.6-0.3-1.4,0.2-1.9l10-7.7c0.6-0.5,1.4-0.4,1.9,0.2
			c0.5,0.6,0.3,1.4-0.2,1.9l-10,7.7C531.6,437.8,531.3,437.9,531,437.9z"/>
		<path class="st7" d="M542.2,453.6c-0.4,0-0.8-0.2-1.1-0.5c-0.5-0.6-0.3-1.4,0.2-1.9l10-7.7c0.6-0.5,1.4-0.4,1.9,0.2
			c0.5,0.6,0.3,1.4-0.2,1.9l-10,7.7C542.7,453.5,542.4,453.6,542.2,453.6z"/>
		<path class="st7" d="M369.2,354.4c-3.8,0-7.5-1.4-10.2-4c-0.5-0.5-0.6-1.4-0.1-1.9c0.5-0.6,1.4-0.6,1.9-0.1
			c2.3,2.1,5.2,3.3,8.4,3.3c0.8,0,1.4,0.6,1.4,1.4C370.6,353.8,370,354.4,369.2,354.4z"/>
		<path class="st7" d="M155.7,651.6c-0.6,0-1.1-0.4-1.3-0.9c-0.1-0.3-2.1-6.5,0.9-17.7c0.2-0.7,1-1.2,1.7-1c0.7,0.2,1.2,0.9,1,1.7
			c-2.8,10.3-1,16.1-0.9,16.1c0.2,0.7-0.1,1.5-0.9,1.7C156,651.6,155.8,651.6,155.7,651.6z"/>
		<path class="st7" d="M175.7,659.7c-0.6,0-1.2-0.4-1.3-1c-0.1-0.3-1.6-6.7,2.3-17.6c0.2-0.7,1-1.1,1.7-0.8s1.1,1,0.8,1.7
			c-3.6,10-2.2,15.9-2.2,16c0.2,0.7-0.3,1.5-1,1.6C175.9,659.7,175.8,659.7,175.7,659.7z"/>
	</g>
</g>
</svg>
