<?xml version="1.0" encoding="utf-8"?>
<!-- Generator: Adobe Illustrator 27.5.0, SVG Export Plug-In . SVG Version: 6.00 Build 0)  -->
<svg version="1.1" id="Layer_1" xmlns="http://www.w3.org/2000/svg" xmlns:xlink="http://www.w3.org/1999/xlink" x="0px" y="0px"
	 viewBox="0 0 1200 600" style="enable-background:new 0 0 1200 600;" xml:space="preserve">
<style type="text/css">
	.st0{fill:#FFFFFF;}
	.st1{font-family:'Montserrat-Medium';}
	.st2{font-size:33.7366px;}
</style>
<g>
	<g>
		<path class="st0" d="M241.74,152.82c-81.38,0-147.35,65.97-147.35,147.35c0,81.38,65.97,147.35,147.35,147.35
			s147.35-65.97,147.35-147.35C389.08,218.79,323.11,152.82,241.74,152.82z M241.74,424.36c-68.59,0-124.19-55.6-124.19-124.19
			s55.6-124.19,124.19-124.19s124.19,55.6,124.19,124.19S310.32,424.36,241.74,424.36z"/>
		<path class="st0" d="M353.37,300.17c0,61.65-49.98,111.63-111.63,111.63S130.1,361.82,130.1,300.17
			c0-17.52,4.14-34.96,12.09-50.58c5.15-10.11,20.59-37.68,34.25-36.98c6.2,0.31,9.64,8.15,7.93,14.12
			c-1.71,5.97-6.69,10.32-11.34,14.43c-10.53,9.32-20.99,19.9-24.62,33.49c-0.87,3.26-1.28,6.89,0.3,9.87
			c1.59,2.98,5.84,4.66,8.49,2.58c0.06-6.03,1.29-12.04,3.6-17.6c1.68-4.04,4.04-7.98,7.66-10.45c3.62-2.47,8.69-3.16,12.37-0.78
			c5.19,3.37,5.45,11.17,2.76,16.75c-2.68,5.58-7.47,9.82-11.05,14.87c-8.08,11.39-9.29,27.77-1.48,39.34
			c7.81,11.57,24.85,16.41,36.84,9.27c4.35-2.59,7.81-6.42,11.72-9.65c7.66-6.32,17.21-10.31,27.09-11.31
			c3.27-0.33,6.64-0.34,9.78,0.63c3.27,1,6.13,3,9.05,4.79c11.69,7.18,25.41,11.52,39.09,10.55c13.68-0.98,27.21-7.7,34.89-19.06
			c6.97-10.3,8.66-23.26,8.83-35.69c-0.01,0.39,3.61,5.42,4.05,6.99C353.65,290.15,353.37,295.62,353.37,300.17z"/>
		<path class="st0" d="M353.37,300.17c0,61.65-49.98,111.63-111.63,111.63S130.1,361.82,130.1,300.17
			c0-17.52,4.14-34.96,12.09-50.58c5.15-10.11,20.59-37.68,34.25-36.98c6.2,0.31,9.64,8.15,7.93,14.12
			c-1.71,5.97-6.69,10.32-11.34,14.43c-10.53,9.32-20.99,19.9-24.62,33.49c-0.87,3.26-1.28,6.89,0.3,9.87
			c1.59,2.98,5.84,4.66,8.49,2.58c0.06-6.03,1.29-12.04,3.6-17.6c1.68-4.04,4.04-7.98,7.66-10.45c3.62-2.47,8.69-3.16,12.37-0.78
			c5.19,3.37,5.45,11.17,2.76,16.75c-2.68,5.58-7.47,9.82-11.05,14.87c-8.08,11.39-9.29,27.77-1.48,39.34
			c7.81,11.57,24.85,16.41,36.84,9.27c4.35-2.59,7.81-6.42,11.72-9.65c7.66-6.32,17.21-10.31,27.09-11.31
			c3.27-0.33,6.64-0.34,9.78,0.63c3.27,1,6.13,3,9.05,4.79c11.69,7.18,25.41,11.52,39.09,10.55c13.68-0.98,27.21-7.7,34.89-19.06
			c6.97-10.3,8.66-23.26,8.83-35.69c-0.01,0.39,3.61,5.42,4.05,6.99C353.65,290.15,353.37,295.62,353.37,300.17z"/>
		<path class="st0" d="M178.66,246.44c1.68,0.26,3.33,0.66,4.94,1.21c4.26,1.44,15.16,14.82,17.16,26
			c4.7-3.36,8.63-7.66,12.52-11.92c-0.16,16.24,8.21,32.49,4.1,48.2c-1.21,4.64-3.47,8.95-4.8,13.55c-0.74,2.57-1.18,5.19-1.39,7.83
			c2.93-2.3,5.57-5,8.45-7.38c7.66-6.32,17.21-10.31,27.09-11.31c3.27-0.33,6.64-0.34,9.78,0.63c3.27,1,6.13,3,9.05,4.79
			c11.15,6.85,24.16,11.11,37.21,10.64c-0.46-5.73-0.19-11.56,0.59-17.26c1.5-11,5.79-21.09,7.98-31.84
			c0.39-1.94,2.2-16.82,0.42-18.42c3.26,2.92,5.95,6.16,7.67,10.26c0.37,0.88,1.09,1.98,1.99,1.65c5.52-8.16,13.78-14,21.85-19.65
			c2.03-1.42-21.23-28.64-23.83-31.41c-5.62-6-13.48-9.41-21.7-9.41h-13.89c0,10.01-9.24,18.13-20.64,18.13
			c-11.4,0-20.64-8.12-20.64-18.13c0,0-13.89,0-13.89,0c-9.69,0-18.38,5.36-25.36,11.62c-1.35,1.21-2.81,2.03-4.27,3.04
			c-2.91,2.72-5.86,5.24-8.64,8.07c-2.98,3.03-5.88,6.13-9.11,8.89C180.43,244.97,179.55,245.7,178.66,246.44z"/>
		<path class="st0" d="M262.06,340.51c-3.95,0-7.16,3.2-7.16,7.16c0,3.95,3.2,7.16,7.16,7.16c3.95,0,7.16-3.2,7.16-7.16
			C269.21,343.71,266.01,340.51,262.06,340.51z M262.06,353.91c-0.15,0-0.3-0.01-0.46-0.02c3.24-0.23,5.79-2.93,5.79-6.23
			s-2.55-5.99-5.79-6.23c0.15-0.01,0.3-0.02,0.46-0.02c3.45,0,6.25,2.8,6.25,6.25S265.51,353.91,262.06,353.91z"/>
		<path class="st0" d="M236.47,326.2c-3.95,0-7.16,3.2-7.16,7.16c0,3.95,3.2,7.16,7.16,7.16c3.95,0,7.16-3.2,7.16-7.16
			C243.62,329.4,240.42,326.2,236.47,326.2z M236.47,339.6c-0.15,0-0.3-0.01-0.46-0.02c3.24-0.23,5.79-2.93,5.79-6.23
			s-2.55-5.99-5.79-6.23c0.15-0.01,0.3-0.02,0.46-0.02c3.45,0,6.25,2.8,6.25,6.25S239.92,339.6,236.47,339.6z"/>
		<path class="st0" d="M156.31,319.04c-3.95,0-7.16,3.2-7.16,7.16c0,3.95,3.2,7.16,7.16,7.16c3.95,0,7.16-3.2,7.16-7.16
			C163.47,322.24,160.26,319.04,156.31,319.04z M156.31,332.44c-0.15,0-0.3-0.01-0.46-0.02c3.24-0.23,5.79-2.93,5.79-6.23
			c0-3.3-2.55-5.99-5.79-6.23c0.15-0.01,0.3-0.02,0.46-0.02c3.45,0,6.25,2.8,6.25,6.25C162.55,329.65,159.76,332.44,156.31,332.44z"
			/>
		<path class="st0" d="M290.15,347.51c-3.08,0-5.58,2.5-5.58,5.58s2.5,5.58,5.58,5.58c3.08,0,5.58-2.5,5.58-5.58
			S293.23,347.51,290.15,347.51z M290.15,357.95c-0.12,0-0.24-0.01-0.35-0.01c2.52-0.18,4.51-2.28,4.51-4.85
			c0-2.57-1.99-4.67-4.51-4.85c0.12-0.01,0.24-0.01,0.35-0.01c2.69,0,4.87,2.18,4.87,4.87
			C295.02,355.77,292.84,357.95,290.15,357.95z"/>
		<path class="st0" d="M310.86,320.62c-3.08,0-5.58,2.5-5.58,5.58c0,3.08,2.5,5.58,5.58,5.58s5.58-2.5,5.58-5.58
			C316.43,323.12,313.94,320.62,310.86,320.62z M310.86,331.06c-0.12,0-0.24-0.01-0.35-0.01c2.52-0.18,4.51-2.28,4.51-4.85
			c0-2.57-1.99-4.67-4.51-4.85c0.12-0.01,0.24-0.01,0.35-0.01c2.69,0,4.87,2.18,4.87,4.87
			C315.72,328.88,313.54,331.06,310.86,331.06z"/>
		<path class="st0" d="M256.48,298.78c-3.08,0-5.58,2.5-5.58,5.58s2.5,5.58,5.58,5.58c3.08,0,5.58-2.5,5.58-5.58
			S259.56,298.78,256.48,298.78z M256.48,309.22c-0.12,0-0.24-0.01-0.35-0.01c2.52-0.18,4.51-2.28,4.51-4.85
			c0-2.57-1.99-4.67-4.51-4.85c0.12-0.01,0.24-0.01,0.35-0.01c2.69,0,4.87,2.18,4.87,4.87
			C261.35,307.04,259.17,309.22,256.48,309.22z"/>
		<path class="st0" d="M192.36,289.02c-3.08,0-5.58,2.5-5.58,5.58s2.5,5.58,5.58,5.58c3.08,0,5.57-2.5,5.57-5.58
			S195.44,289.02,192.36,289.02z M192.36,299.46c-0.12,0-0.24-0.01-0.35-0.01c2.52-0.18,4.51-2.28,4.51-4.85
			c0-2.57-1.99-4.67-4.51-4.85c0.12-0.01,0.24-0.01,0.35-0.01c2.69,0,4.87,2.18,4.87,4.87S195.05,299.46,192.36,299.46z"/>
		<path class="st0" d="M190.45,304.35c-7.44,0-13.47,6.03-13.47,13.47s6.03,13.47,13.47,13.47c7.44,0,13.47-6.03,13.47-13.47
			S197.89,304.35,190.45,304.35z M190.45,329.58c-0.29,0-0.57-0.01-0.86-0.03c6.09-0.44,10.9-5.52,10.9-11.72
			s-4.81-11.28-10.9-11.72c0.28-0.02,0.57-0.03,0.86-0.03c6.49,0,11.76,5.26,11.76,11.76C202.21,324.32,196.95,329.58,190.45,329.58
			z"/>
		<path class="st0" d="M216.35,354.26c-5.07,0-9.18,4.11-9.18,9.18s4.11,9.18,9.18,9.18c5.07,0,9.18-4.11,9.18-9.18
			S221.41,354.26,216.35,354.26z M216.35,371.44c-0.2,0-0.39-0.01-0.58-0.02c4.15-0.3,7.42-3.76,7.42-7.99s-3.27-7.69-7.42-7.99
			c0.19-0.01,0.39-0.02,0.58-0.02c4.42,0,8.01,3.59,8.01,8.01C224.36,367.86,220.77,371.44,216.35,371.44z"/>
		<path class="st0" d="M172.64,262.77c-5.07,0-9.18,4.11-9.18,9.18s4.11,9.18,9.18,9.18c5.07,0,9.18-4.11,9.18-9.18
			S177.71,262.77,172.64,262.77z M172.64,279.96c-0.2,0-0.39-0.01-0.58-0.02c4.15-0.3,7.42-3.76,7.42-7.99
			c0-4.23-3.27-7.69-7.42-7.99c0.19-0.01,0.39-0.02,0.58-0.02c4.42,0,8.01,3.59,8.01,8.01
			C180.65,276.37,177.06,279.96,172.64,279.96z"/>
		<path class="st0" d="M322.16,300.17c-5.07,0-9.18,4.11-9.18,9.18c0,5.07,4.11,9.18,9.18,9.18c5.07,0,9.18-4.11,9.18-9.18
			C331.34,304.28,327.23,300.17,322.16,300.17z M322.16,317.35c-0.2,0-0.39-0.01-0.58-0.02c4.15-0.3,7.42-3.76,7.42-7.99
			c0-4.23-3.27-7.69-7.42-7.99c0.19-0.01,0.39-0.02,0.58-0.02c4.42,0,8.01,3.59,8.01,8.01
			C330.17,313.77,326.58,317.35,322.16,317.35z"/>
		<path class="st0" d="M285.93,298.15c-5.07,0-9.18,4.11-9.18,9.18c0,5.07,4.11,9.18,9.18,9.18s9.18-4.11,9.18-9.18
			C295.11,302.26,291,298.15,285.93,298.15z M285.93,315.34c-0.2,0-0.39-0.01-0.58-0.02c4.15-0.3,7.42-3.76,7.42-7.99
			s-3.27-7.69-7.42-7.99c0.19-0.01,0.39-0.02,0.58-0.02c4.42,0,8.01,3.59,8.01,8.01S290.35,315.34,285.93,315.34z"/>
		<path class="st0" d="M237.86,284.66c-6.82,0-12.34,5.52-12.34,12.34c0,6.82,5.52,12.34,12.34,12.34c6.81,0,12.34-5.52,12.34-12.34
			C250.2,290.19,244.68,284.66,237.86,284.66z M237.86,307.77c-0.26,0-0.53-0.01-0.79-0.03c5.58-0.4,9.98-5.05,9.98-10.74
			c0-5.68-4.4-10.33-9.98-10.74c0.26-0.02,0.52-0.03,0.79-0.03c5.95,0,10.77,4.82,10.77,10.77
			C248.63,302.95,243.81,307.77,237.86,307.77z"/>
	</g>
	<g>
		<g>
			<g>
				<path class="st0" d="M439.67,352.25c-6.19-0.95-11.84-3.57-16.96-7.85c-5.12-4.28-7.68-9.88-7.68-16.78
					c0.95-3.57,2.56-6.37,4.82-8.39c2.26-2.02,4.76-3.51,7.5-4.46c2.73-0.95,5.53-1.55,8.39-1.79c2.86-0.23,5.59-0.47,8.21-0.71
					c5.95,0.48,11.72,1.01,17.32,1.61c5.59,0.6,11.12,1.37,16.6,2.32c4.28-5.71,8.03-11.78,11.25-18.21
					c3.21-6.43,6.12-12.97,8.75-19.64c3.57-10.23,7.14-20.11,10.71-29.63c3.57-9.52,6.78-17.97,9.64-25.35
					c2.86-7.37,5.23-13.27,7.14-17.67c1.9-4.4,2.86-6.72,2.86-6.96c0.95-2.38,1.9-4.88,2.86-7.5c1.43-4.52,2.38-8.45,2.86-11.78
					c0.71,0.24,2.14,0.78,4.28,1.61c2.14,0.84,4.34,2.02,6.6,3.57c2.26,1.55,4.34,3.39,6.25,5.53c1.9,2.14,2.86,4.76,2.86,7.85
					c0,0.95-0.06,2.02-0.18,3.21c-0.12,1.19-0.42,2.38-0.89,3.57c-3.57,7.85-7.2,16.37-10.89,25.53
					c-3.69,9.17-7.68,18.69-11.96,28.56c-4.28,9.88-9.05,19.99-14.28,30.35c-5.24,10.35-11.19,20.53-17.85,30.53
					c13.57,2.86,26,6.01,37.31,9.46c11.3,3.45,21.06,6.72,29.28,9.82c8.21,3.09,14.82,5.71,19.82,7.85c5,2.14,7.97,3.21,8.93,3.21
					l0.36-0.36l0.71,0.71c0.71,0.71,1.07,1.19,1.07,1.43c0,0.71-0.3,1.19-0.89,1.43c-0.6,0.23-1.13,0.36-1.61,0.36
					c-1.43,0-5.12-0.95-11.07-2.86c-5.95-1.91-13.45-4.23-22.49-6.96c-9.05-2.74-19.34-5.53-30.88-8.39
					c-11.55-2.86-23.74-5.35-36.59-7.5c-5.95,6.66-12.85,12.43-20.71,17.32c-7.85,4.88-16.31,7.32-25.35,7.32c-1.19,0-2.2,0-3.04,0
					C441.87,352.61,440.86,352.49,439.67,352.25z M470.37,325.12c-2.14-0.47-4.46-0.77-6.96-0.89c-2.5-0.12-5.06-0.18-7.68-0.18
					c-7.14,0-13.63,0.54-19.46,1.61c-5.84,1.07-8.75,2.44-8.75,4.11c0,0.24,0.47,0.78,1.43,1.61c0.95,0.84,2.14,1.66,3.57,2.5
					c1.43,0.83,3.09,1.61,5,2.32c1.9,0.71,3.8,1.07,5.71,1.07c4.28,0,8.86-1.07,13.74-3.21
					C461.86,331.9,466.32,328.93,470.37,325.12z"/>
				<path class="st0" d="M637.1,292.99c-0.24,0.71-1.13,3.27-2.68,7.68c-1.55,4.41-3.75,8.99-6.61,13.75
					c-2.86,4.76-6.31,9.1-10.35,13.03c-4.05,3.93-8.69,5.89-13.92,5.89c-3.1,0-6.01-0.89-8.75-2.68c-2.74-1.78-5.42-5.53-8.03-11.25
					c-0.95,1.19-2.09,2.62-3.39,4.28c-1.31,1.67-2.98,3.21-5,4.64c-2.02,1.43-4.46,2.62-7.32,3.57c-2.86,0.95-6.31,1.43-10.35,1.43
					c-5.48,0-9.94-1.31-13.39-3.93c-3.45-2.62-6.13-5.77-8.03-9.46c-1.9-3.69-3.21-7.61-3.93-11.78c-0.71-4.16-1.07-7.68-1.07-10.53
					c0-5.95,1.25-12.43,3.75-19.46c2.5-7.02,6.01-13.57,10.53-19.64c4.52-6.07,10-11.12,16.42-15.17
					c6.43-4.04,13.57-6.07,21.42-6.07c4.76,0,8.33,0.6,10.71,1.78c2.38,1.19,4.88,2.5,7.5,3.93c0.71-1.43,1.37-2.86,1.96-4.28
					c0.59-1.43,1.01-2.62,1.25-3.57c0.23,0,1.19,0.54,2.86,1.61c1.66,1.07,3.51,2.5,5.53,4.28c2.02,1.79,3.87,3.75,5.53,5.89
					c1.66,2.14,2.5,4.17,2.5,6.07c0,1.19-0.24,2.74-0.71,4.64c-0.48,1.91-1.67,4.17-3.57,6.78c-4.28,7.62-8.45,15.83-12.5,24.63
					c-4.05,8.81-6.07,16.9-6.07,24.28c0,2.86,0.3,5.12,0.89,6.78c0.59,1.67,1.96,2.5,4.11,2.5c3.09,0,7.2-2.44,12.32-7.32
					c5.12-4.88,10.05-12.79,14.82-23.74l0.71-0.36c1.43,0,2.26,0.36,2.5,1.07C636.97,292.99,637.1,293.23,637.1,292.99z
					 M585.33,313.69c-0.24-1.19-0.36-2.26-0.36-3.21c0-0.95,0-2.02,0-3.21c0-6.9,1.01-14.16,3.04-21.78
					c2.02-7.61,4.34-14.75,6.96-21.42c-1.91-1.9-3.57-3.33-5-4.28c-1.43-0.95-3.57-1.43-6.43-1.43c-4.28,0-8.57,1.31-12.85,3.93
					c-4.28,2.62-8.21,6.01-11.78,10.17c-3.57,4.17-6.49,8.81-8.75,13.92c-2.26,5.12-3.39,10.3-3.39,15.53
					c0,2.62,0.18,5.24,0.54,7.85c0.36,2.62,1.13,5.12,2.32,7.5c1.19,2.38,2.97,4.28,5.36,5.71c2.38,1.43,5.59,2.14,9.64,2.14
					c5.71,0,10.17-1.48,13.39-4.46C581.22,317.68,583.66,315.36,585.33,313.69z"/>
				<path class="st0" d="M727.78,291.56c0.95,0.71,1.43,1.19,1.43,1.43c0,0.48-0.78,2.8-2.32,6.96c-1.55,4.17-3.75,8.75-6.6,13.75
					c-2.86,5-6.37,9.52-10.53,13.57c-4.17,4.05-8.87,6.07-14.1,6.07c-3.81,0-7.56-1.61-11.25-4.82c-3.69-3.21-6.13-8.98-7.32-17.32
					c-1.43,2.38-3.16,4.88-5.18,7.5c-2.03,2.62-4.23,5-6.61,7.14c-2.38,2.14-5,3.93-7.85,5.35c-2.86,1.43-5.83,2.14-8.92,2.14
					c-4.52,0-8.81-2.2-12.85-6.61c-4.04-4.4-6.07-10.89-6.07-19.46c0-5.71,0.78-11.72,2.32-18.03c1.54-6.3,3.39-12.37,5.53-18.21
					c2.14-5.83,4.28-11.07,6.43-15.71c2.14-4.64,3.8-8.27,5-10.89c0.95-1.9,2.5-4.76,4.64-8.57c2.14-3.8,3.57-6.9,4.28-9.28
					c0.23,0,1.19,0.54,2.86,1.61c1.66,1.07,3.45,2.38,5.36,3.93c1.9,1.55,3.63,3.34,5.18,5.36c1.54,2.02,2.32,4.11,2.32,6.25
					c0,0.71-0.12,2.09-0.36,4.11c-0.24,2.02-0.95,3.63-2.14,4.82c-1.91,4.05-4.28,8.57-7.14,13.57c-2.86,5-5.59,10.18-8.21,15.53
					c-2.62,5.36-4.82,10.77-6.6,16.24c-1.78,5.48-2.68,10.59-2.68,15.35c0,3.1,0.41,5.6,1.25,7.5c0.83,1.91,2.56,2.86,5.18,2.86
					c3.33,0,7.32-1.9,11.96-5.71c4.64-3.8,8.98-10.47,13.03-19.99c0.95-6.9,2.5-13.8,4.64-20.71c2.14-6.9,4.34-13.03,6.61-18.39
					c2.26-5.35,4.34-9.7,6.25-13.03c1.9-3.33,3.09-5,3.57-5c1.66,0,3.63,0.42,5.89,1.25c2.26,0.84,4.58,1.85,6.96,3.03
					c2.62,1.19,5.36,2.62,8.21,4.28c-1.67,3.81-3.99,8.33-6.96,13.57c-2.98,5.24-5.89,10.77-8.75,16.6
					c-2.86,5.83-5.36,11.66-7.5,17.49c-2.14,5.83-3.21,11.37-3.21,16.6c0,2.62,0.3,4.76,0.89,6.43c0.59,1.67,1.96,2.5,4.11,2.5
					c3.09,0,7.2-2.44,12.32-7.32c5.12-4.88,10.05-12.79,14.82-23.74l0.71-0.36C726.82,291.2,727.3,291.33,727.78,291.56z"/>
				<path class="st0" d="M773.47,326.19c-3.34-4.76-5-11.07-5-18.92c0-6.43,0.89-13.15,2.68-20.17c1.79-7.02,3.87-13.75,6.25-20.17
					c-2.14,4.05-4.46,8.45-6.96,13.21c-2.5,4.76-4.94,9.52-7.32,14.28c-2.38,4.76-4.64,9.41-6.78,13.92
					c-2.14,4.52-4.05,8.33-5.71,11.42c-1.43,2.86-2.68,5.12-3.75,6.78c-1.07,1.67-2.38,3.21-3.93,4.64
					c-1.55,1.43-3.27,2.26-5.18,2.5c-5.71,0.47-9.52-1.61-11.42-6.25c-1.9-4.64-2.86-10.53-2.86-17.67c0-7.85,1.07-15.89,3.21-24.1
					c2.14-8.21,4.52-15.65,7.14-22.31c2.62-6.66,5.11-12.08,7.5-16.24c2.38-4.16,3.8-6.25,4.28-6.25c1.66,0,3.63,0.42,5.89,1.25
					c2.26,0.84,4.58,1.85,6.96,3.03c2.62,1.19,5.36,2.62,8.21,4.28c-1.91,4.05-4.35,8.57-7.32,13.57c-2.98,5-5.89,10.35-8.75,16.07
					c-2.86,5.71-5.36,11.66-7.5,17.85c-2.14,6.19-3.21,12.26-3.21,18.21c7.85-14.04,14.64-25.58,20.35-34.63
					c5.71-9.04,10.53-16.3,14.46-21.78c3.93-5.47,7.14-9.64,9.64-12.5c2.5-2.86,4.52-5.23,6.07-7.14c1.55-1.9,2.68-3.69,3.39-5.35
					c0.71-1.66,1.43-4.16,2.14-7.5c0.23,0,1.25,0.54,3.03,1.61c1.79,1.07,3.63,2.5,5.53,4.28c1.9,1.79,3.69,3.69,5.36,5.71
					c1.66,2.03,2.5,4.11,2.5,6.25c0,0.71-0.18,2.02-0.54,3.93c-0.36,1.91-1.01,3.34-1.96,4.28c-1.91,4.05-4.28,8.57-7.14,13.57
					c-2.86,5-5.59,10.24-8.21,15.71c-2.62,5.48-4.88,10.95-6.78,16.42c-1.91,5.48-2.86,10.59-2.86,15.35c0,2.62,0.3,4.82,0.89,6.61
					c0.59,1.78,1.96,2.68,4.11,2.68c3.09,0,7.2-2.44,12.32-7.32c5.12-4.88,10.05-12.79,14.82-23.74l0.71-0.36
					c0.71,0,1.43,0.36,2.14,1.07l0.71,0.71c0,0.48-0.78,2.8-2.32,6.96c-1.55,4.17-3.75,8.75-6.61,13.75
					c-2.86,5-6.37,9.52-10.53,13.57c-4.17,4.05-8.87,6.07-14.1,6.07c-2.14,0-4.41-0.48-6.78-1.43
					C777.87,330.95,775.61,329.05,773.47,326.19z"/>
				<path class="st0" d="M913.06,316.55c-0.95,1.43-2.2,3.1-3.75,5c-1.55,1.91-3.45,3.75-5.71,5.53c-2.27,1.78-4.82,3.27-7.68,4.46
					c-2.86,1.19-6.07,1.79-9.64,1.79c-2.62,0-5.77-0.77-9.46-2.32c-3.69-1.55-6.13-4.58-7.32-9.1c-1.91,1.91-5.12,4.41-9.64,7.5
					c-4.52,3.1-9.88,4.64-16.07,4.64c-5.24,0-9.64-1.25-13.21-3.75c-3.57-2.5-6.43-5.53-8.57-9.1c-2.14-3.57-3.69-7.44-4.64-11.6
					c-0.95-4.16-1.43-8.03-1.43-11.6c0-5.71,1.19-12.08,3.57-19.1c2.38-7.02,5.83-13.62,10.35-19.81c4.52-6.19,10-11.36,16.42-15.53
					c6.43-4.16,13.57-6.25,21.42-6.25c3.57,0,6.84,0.36,9.82,1.07c2.97,0.71,5.53,1.67,7.68,2.86c3.57-9.04,6.72-16.84,9.46-23.38
					c2.73-6.54,4.82-11.48,6.25-14.82l2.5-7.5c0.71-2.14,1.37-4.28,1.96-6.43c0.59-2.14,0.89-3.93,0.89-5.35
					c0.47,0.24,1.79,0.78,3.93,1.61c2.14,0.84,4.4,1.96,6.78,3.39c2.38,1.43,4.52,3.16,6.43,5.18c1.9,2.02,2.86,4.35,2.86,6.96
					c0,1.19-0.12,2.5-0.36,3.93c-0.24,1.43-0.71,3.1-1.43,5c-1.67,3.81-4.76,10.3-9.28,19.46c-4.52,9.17-9.23,19.1-14.1,29.81
					c-4.88,10.71-9.17,21.24-12.85,31.6c-3.69,10.35-5.53,18.51-5.53,24.46c0,5,2.02,7.5,6.07,7.5c4.04,0,9.04-2.44,14.99-7.32
					c5.95-4.88,11.3-12.79,16.07-23.74l0.71-0.36c0.95,0,1.78,0.36,2.5,1.07l0.71,0.71c0,0.95-0.78,3.69-2.32,8.21
					C919.9,305.72,917.11,310.84,913.06,316.55z M868.08,315.48c-0.71-6.66-0.12-14.64,1.79-23.92c1.9-9.28,4.52-18.8,7.85-28.56
					c-3.33-2.62-7.08-4.16-11.25-4.64c-4.17-0.47-8.75,0.6-13.75,3.21c-6.19,3.81-11.73,9.46-16.6,16.96
					c-4.88,7.5-7.44,15.3-7.68,23.38c-0.95,4.76-0.48,8.93,1.43,12.5c1.9,3.57,4.52,6.31,7.85,8.21c3.33,1.91,6.9,2.92,10.71,3.03
					c3.8,0.12,7.02-1.01,9.64-3.39c2.38-1.19,4.34-2.32,5.89-3.39C865.52,317.8,866.88,316.67,868.08,315.48z"/>
				<path class="st0" d="M1001.6,291.56c1.19,0.71,1.78,1.19,1.78,1.43c0,0.48-0.77,2.86-2.32,7.14c-1.55,4.28-3.81,8.87-6.78,13.75
					c-2.98,4.88-6.55,9.34-10.71,13.39c-4.17,4.05-8.87,6.07-14.1,6.07c-4.52,0-8.75-2.2-12.67-6.61
					c-3.93-4.4-5.89-10.89-5.89-19.46c0-6.9,1.01-14.04,3.03-21.42c2.02-7.37,4.34-14.28,6.96-20.71c-2.62,0.48-5.18,0.78-7.68,0.89
					c-2.5,0.12-5.06,0.3-7.68,0.54c-0.95,0-1.85,0-2.68,0c-0.84,0-1.85-0.12-3.04-0.36c-3.34,5.48-6.37,10.59-9.1,15.35
					c-2.74,4.76-5.06,8.81-6.96,12.14c-2.38,4.05-4.52,7.74-6.43,11.07c-0.23,0-0.54-0.12-0.89-0.36c-0.36-0.23-0.65-0.36-0.89-0.36
					l-0.71-0.71c0.24-0.71,0.95-2.5,2.14-5.35c1.19-2.86,2.56-6.3,4.11-10.35c1.55-4.04,3.21-8.33,5-12.85
					c1.79-4.52,3.39-8.69,4.82-12.5c-4.05-2.62-6.78-5.77-8.21-9.46c-1.43-3.69-2.14-6.84-2.14-9.46c0-2.62,0.23-4.58,0.71-5.89
					c0.47-1.31,1.66-1.96,3.57-1.96c0.95,0,2.44,0.12,4.46,0.36c2.02,0.24,4.11,0.6,6.25,1.07c2.14,0.48,4.16,1.01,6.07,1.61
					c1.9,0.6,3.09,1.13,3.57,1.61c-0.71,1.67-1.19,2.68-1.43,3.03c-0.24,0.36-0.6,0.78-1.07,1.25c0,0.48,0.54,0.84,1.61,1.07
					c1.07,0.24,2.38,0.48,3.93,0.71c1.54,0.24,3.27,0.42,5.18,0.54c1.9,0.12,3.69,0.18,5.35,0.18h10c-0.24,0.48,0.06,0,0.89-1.43
					c0.83-1.43,1.84-3.21,3.03-5.35c1.19-2.14,2.32-4.46,3.39-6.96c1.07-2.5,1.84-4.82,2.32-6.96c0.23,0,1.19,0.54,2.86,1.61
					c1.66,1.07,3.51,2.44,5.53,4.11c2.02,1.67,3.87,3.51,5.53,5.53c1.66,2.02,2.5,4.11,2.5,6.25c0,0.95-0.06,1.85-0.18,2.68
					c-0.12,0.84-0.3,1.85-0.53,3.03c-1.91,3.81-4.35,8.33-7.32,13.57c-2.98,5.24-5.89,10.71-8.75,16.42
					c-2.86,5.71-5.3,11.49-7.32,17.32c-2.03,5.83-3.04,11.37-3.04,16.6c0,2.62,0.3,4.82,0.89,6.61c0.59,1.78,1.84,2.68,3.75,2.68
					c3.33,0,7.5-2.44,12.5-7.32c5-4.88,9.87-12.79,14.64-23.74l0.71-0.36C1000.64,291.2,1001.12,291.33,1001.6,291.56z"/>
				<path class="st0" d="M1104.06,291.56c0.95,0.71,1.43,1.19,1.43,1.43c0-1.43-0.42-0.18-1.25,3.75c-0.84,3.93-2.5,8.63-5,14.1
					c-2.5,5.48-6.25,10.59-11.25,15.35c-5,4.76-11.55,7.14-19.64,7.14c-2.62,0-5.18-0.48-7.67-1.43c-2.5-0.95-4.82-2.73-6.96-5.35
					c-0.71,1.91-1.55,3.69-2.5,5.35c-0.95,1.66-1.79,3.33-2.5,5c3.09,0.47,6.66,1.01,10.71,1.61c4.04,0.59,8.33,1.07,12.85,1.43
					c4.52,0.36,9.28,0.3,14.28-0.18c5-0.48,10-1.67,14.99-3.57c0,2.62-0.48,5.29-1.43,8.03c-0.95,2.73-2.38,5.29-4.28,7.68
					c-1.91,2.38-4.23,4.4-6.96,6.07c-2.74,1.66-5.89,2.62-9.46,2.86c-8.09,0.47-14.99-0.06-20.71-1.61
					c-5.71-1.55-11.9-3.63-18.56-6.25c-4.76,8.33-9.88,14.1-15.35,17.32c-5.48,3.21-11.07,4.82-16.78,4.82c-0.95,0-2.62-0.12-5-0.36
					c-2.38-0.24-4.82-0.95-7.32-2.14c-2.5-1.19-4.76-3.03-6.78-5.53c-2.02-2.5-3.04-6.01-3.04-10.53c0-4.52,1.19-8.21,3.57-11.07
					c2.38-2.86,5.18-5.06,8.39-6.61c3.21-1.55,6.37-2.56,9.46-3.03c3.09-0.48,5.35-0.71,6.78-0.71c1.9,0,3.63,0.06,5.18,0.18
					c1.55,0.12,3.15,0.18,4.82,0.18c4.76,0,7.61-1.07,8.57-3.21c0.95-2.14,2.14-5,3.57-8.57c-2.62,2.62-5.6,4.88-8.93,6.78
					c-3.34,1.91-6.91,2.86-10.71,2.86c-4.28,0-8.45-2.2-12.5-6.61c-4.05-4.4-6.07-10.89-6.07-19.46c0-9.04,1.07-17.14,3.21-24.28
					c2.14-7.14,4.64-13.8,7.5-19.99c2.86-6.19,5.77-12.19,8.75-18.03c2.97-5.83,5.41-11.96,7.32-18.39c0.23,0,1.3,0.54,3.21,1.61
					c1.9,1.07,3.81,2.44,5.71,4.11c1.9,1.67,3.69,3.51,5.36,5.53c1.66,2.03,2.5,4.11,2.5,6.25c0,3.34-1.07,6.91-3.21,10.71
					c-2.14,4.05-4.52,8.51-7.14,13.39c-2.62,4.88-5.18,9.88-7.68,14.99c-2.5,5.12-4.59,10.3-6.25,15.53
					c-1.67,5.24-2.5,10.12-2.5,14.64c0,3.1,0.41,5.66,1.25,7.68c0.83,2.03,2.68,3.03,5.53,3.03c4.04,0,8.93-3.09,14.64-9.28
					c5.71-6.19,10.94-16.9,15.71-32.13c4.28-14.28,8.51-25.11,12.67-32.49c4.16-7.37,6.48-12.61,6.96-15.71
					c0.23,0,1.25,0.48,3.03,1.43c1.78,0.95,3.69,2.27,5.71,3.93c2.02,1.67,3.87,3.45,5.53,5.36c1.66,1.91,2.5,3.93,2.5,6.07
					c-0.24,1.19-0.54,2.74-0.89,4.64c-0.36,1.91-1.13,3.93-2.32,6.07c-2.14,3.81-4.41,7.92-6.78,12.32
					c-2.38,4.41-4.64,8.87-6.78,13.39c-2.14,4.52-3.87,8.99-5.18,13.39c-1.31,4.41-1.96,8.63-1.96,12.67c0,2.86,0.36,5.06,1.07,6.6
					c0.71,1.55,2.38,2.32,5,2.32c4.04,0,9.1-2.44,15.17-7.32c6.07-4.88,11.48-12.79,16.24-23.74l0.71-0.36
					C1103.1,291.2,1103.58,291.33,1104.06,291.56z M1024.8,351.54c0.71-0.24,2.02-0.36,3.93-0.36c0.71,0,1.43,0.06,2.14,0.18
					c0.71,0.12,1.3,0.18,1.79,0.18h1.78l-8.93-2.14c-2.62-0.48-5.3-1.07-8.03-1.79c-2.74-0.71-5.42-1.07-8.03-1.07
					c-4.05,0-7.8,0.89-11.25,2.68c-3.45,1.79-5.18,4.82-5.18,9.1c0,3.09,1.25,5.36,3.75,6.78c2.5,1.43,5.18,2.14,8.03,2.14
					c3.09,0,6.36-1.13,9.82-3.39C1018.07,361.59,1021.46,357.49,1024.8,351.54z"/>
			</g>
		</g>
		<text transform="matrix(1 0 0 1 518.1189 415.5961)" class="st0 st1 st2">Sparkling Clean, Every Time.</text>
	</g>
</g>
</svg>
