<?xml version="1.0" encoding="utf-8"?>
<!-- Generator: Adobe Illustrator 27.1.0, SVG Export Plug-In . SVG Version: 6.00 Build 0)  -->
<svg version="1.1" id="Layer_1" xmlns="http://www.w3.org/2000/svg" xmlns:xlink="http://www.w3.org/1999/xlink" x="0px" y="0px"
	 viewBox="0 0 1200 1200" style="enable-background:new 0 0 1200 1200;" xml:space="preserve">
<style type="text/css">
	.st0{fill:#414042;}
	.st1{fill:#6D6E71;}
	.st2{fill:#D1D3D4;}
	.st3{fill:#A7A9AC;}
	.st4{fill:#231F20;}
	.st5{fill:#F7ACB4;}
	.st6{fill:#58595B;}
</style>
<g id="machine">
	<rect x="444" y="306.94" class="st0" width="234.06" height="340.75"/>
	<rect x="284.62" y="306.94" class="st1" width="279.17" height="340.75"/>
	<g>
		<ellipse class="st2" cx="424.21" cy="465.99" rx="91.67" ry="91.67"/>
		<path class="st3" d="M487.75,465.98c0,21.97-11.19,41.34-28.12,52.75c-10.13,6.85-22.31,10.81-35.41,10.81
			c-35.03,0-63.57-28.5-63.57-63.56c0-35.03,28.53-63.53,63.57-63.53c13.09,0,25.28,3.96,35.41,10.81
			C476.56,424.67,487.75,444.04,487.75,465.98z"/>
		<path class="st0" d="M487.75,465.98c0,21.97-11.19,41.34-28.12,52.75c-16.94-11.41-28.13-30.78-28.13-52.75
			c0-21.94,11.19-41.31,28.13-52.72C476.56,424.67,487.75,444.04,487.75,465.98z"/>
	</g>
	<rect x="444" y="645.24" class="st0" width="234.06" height="340.75"/>
	<rect x="284.62" y="645.24" class="st1" width="279.17" height="340.75"/>
	<g>
		<path class="st2" d="M332.54,804.3c0-50.63,41.03-91.67,91.67-91.67c50.63,0,91.67,41.04,91.67,91.67
			c0,50.63-41.04,91.66-91.67,91.66C373.58,895.96,332.54,854.92,332.54,804.3z"/>
		<path class="st3" d="M487.75,804.28c0,21.97-11.19,41.34-28.12,52.75c-10.13,6.85-22.31,10.82-35.41,10.82
			c-35.03,0-63.57-28.5-63.57-63.57c0-35.04,28.53-63.53,63.57-63.53c13.09,0,25.28,3.97,35.41,10.81
			C476.56,762.98,487.75,782.34,487.75,804.28z"/>
		<path class="st0" d="M487.75,804.28c0,21.97-11.19,41.34-28.12,52.75c-16.94-11.41-28.13-30.78-28.13-52.75
			c0-21.94,11.19-41.31,28.13-52.72C476.56,762.98,487.75,782.34,487.75,804.28z"/>
	</g>
	<g>
		<path class="st2" d="M155.87,465.99c0-50.63,41.04-91.67,91.67-91.67c50.63,0,91.67,41.04,91.67,91.67
			c0,50.63-41.04,91.67-91.67,91.67C196.91,557.66,155.87,516.62,155.87,465.99z"/>
		<path class="st3" d="M311.08,465.98c0,21.97-11.18,41.34-28.13,52.75c-10.12,6.85-22.31,10.81-35.41,10.81
			c-35.03,0-63.57-28.5-63.57-63.56c0-35.03,28.53-63.53,63.57-63.53c13.09,0,25.28,3.96,35.41,10.81
			C299.89,424.67,311.08,444.04,311.08,465.98z"/>
	</g>
	<rect x="284.34" y="641.83" class="st4" width="393.74" height="11.7"/>
</g>
<g>
	<g>
		<g>
			<g>
				<g>
					<g>
						<path class="st5" d="M794.15,411.82c7.87,12.33,8.8,28.5,1.04,42.07l-46.31,81.03c-2.1,3.65-4.77,6.95-7.88,9.82l-70.04,64.01
							c-16.56,15.14-42.27,14.01-57.42-2.58c-15.14-16.55-14-42.28,2.58-57.43l65.33-59.71l43.17-75.47
							c11.14-19.49,35.97-26.26,55.47-15.13C785.98,401.82,790.73,406.46,794.15,411.82z"/>
						<path class="st5" d="M621.85,548.12c-8-2.87-16.43,4.46-22.08,9.13c-5.19,4.29-10.04,8.31-15.62,11.95
							c-4.24,2.74-6.68,5.97-4.24,11.06c2.02,4.16,5.6,6.54,9.89,7.8c3.59,1.05,3.86-0.78,4.23,3.19
							c0.47,4.96-2.27,11.39-2.62,16.49c-0.33,4.69-1.21,11.92,2.24,15.75c3.63,4.05,7.05,3.1,11.86,3.08
							c-0.01,4.87,2.13,10.14,6.96,12.18c2.16,0.92,4.56,0.96,6.83,0.41c0.74-0.18,7.28-2.98,6.85-3.75
							c9.91,17.25,44.16-16.39,49.69-29.59c12.08-28.07-13.52-39.59-37.35-50.08L621.85,548.12z"/>
					</g>
					<g>
						<path class="st4" d="M614.59,610.51c0.26,0.38,0.29,0.9,0.06,1.32l-7.94,15.36c-0.35,0.64-1.15,0.92-1.81,0.57
							c-0.64-0.32-0.91-1.16-0.58-1.81l7.95-15.34c0.33-0.66,1.15-0.91,1.8-0.57C614.3,610.16,614.46,610.32,614.59,610.51z"/>
						<path class="st4" d="M636.16,621.08c0.27,0.41,0.29,1.01-0.01,1.44l-8.91,13.61c-0.39,0.63-1.21,0.79-1.84,0.4
							c-0.63-0.41-0.78-1.23-0.39-1.86l8.91-13.61c0.4-0.62,1.23-0.78,1.85-0.4C635.93,620.78,636.05,620.91,636.16,621.08z"/>
					</g>
				</g>
				<path class="st3" d="M834.46,388.73H770.1c-23.34,0-42.25,16.56-42.25,36.99v123.4c0,4.27,2.93,7.95,7.11,9.61l-0.03,0.11
					c0,0,0.35,0.08,0.98,0.21c0.79,0.24,1.59,0.41,2.44,0.5c14.49,2.91,72.49,13.03,119.3,0.14h0.93c6.67,0,12.06-4.74,12.06-10.57
					l15.1-126.71C887.25,401.3,854.45,388.73,834.46,388.73z"/>
				<g>
					<g>
						<path class="st5" d="M773.02,945.34c-0.43,0-0.86,0-1.29,0c-24.88-0.34-44.79-20.73-44.46-45.61l2.54-200.53
							c0.35-24.89,20.73-44.71,45.65-44.48c24.88,0.32,44.78,20.75,44.46,45.61l-2.57,200.53
							C817.05,925.33,797.32,944.97,773.02,945.34z"/>
					</g>
				</g>
				<g>
					<g>
						<g>
							<g id="body_2_">
								<path class="st5" d="M798.81,409.71c-12.99,2.16-25.16,2.25-34.7,0.62c-5.44-0.93-5.91-5.07-1.12-7.84
									c4.18-2.47,8.7-4.89,13.59-7.22c0.77-0.41,1.39-0.67,2-1.02c2.75-1.47,7.24-4.79,7.01-10.93l-0.12-3.39l-0.22-6.64
									l-0.11-3.23l0.37-9.99l35.01-28.32l15.33,55.2c1.89,1.73,3.64,3.69,5.4,5.63C833.36,399.89,817.63,406.57,798.81,409.71z"/>
							</g>
							<g>
								<path class="st5" d="M781.6,374.06l3.74,0.47c13.88,1.81,27.03-3.97,35.18-14.23c4.28-5.32,7.18-11.83,8.14-19.12
									l1.93-14.97l0.07-0.36c2.7-21.18-12.25-40.62-33.44-43.33l-3.68-0.42c-10.56-1.4-20.7,1.63-28.54,7.6
									c-1.15,0.92-2.3,1.86-3.32,2.89c-6.04,5.86-10.26,13.76-11.47,22.81l-1.92,15.39C745.51,351.92,760.41,371.35,781.6,374.06z
									"/>
							</g>
						</g>
					</g>
					<g>
						<path class="st4" d="M765,289.7c3.62,7.9,9.66,15.93,17.73,22.8c16.13,13.71,35.43,18.84,47.85,13.71l0.07-0.36
							c2.7-21.18-12.25-40.62-33.44-43.33l-3.68-0.42C782.99,280.71,772.85,283.73,765,289.7z"/>
					</g>
					<g id="face_2_">
						<path class="st4" d="M775.52,341.28c-0.13,0.03-0.27,0.03-0.42,0.03l-9.89-0.83c-0.43-0.04-0.81-0.28-1.03-0.65
							c-0.23-0.37-0.26-0.83-0.09-1.22l6.4-14.78c0.28-0.68,1.07-0.98,1.75-0.7c0.68,0.31,0.99,1.08,0.7,1.76l-5.66,13.06l8.05,0.7
							c0.74,0.06,1.28,0.7,1.21,1.44C776.49,340.68,776.07,341.14,775.52,341.28z"/>
						<path class="st4" d="M776.95,354.38c-5.66,1.35-10.77-1.65-10.83-1.68c-0.64-0.39-0.83-1.2-0.46-1.84
							c0.39-0.62,1.21-0.83,1.84-0.46c0.37,0.24,9.26,5.39,15.45-3.52c0.42-0.62,1.27-0.77,1.86-0.34c0.62,0.43,0.77,1.24,0.34,1.86
							C782.61,352.02,779.73,353.7,776.95,354.38z"/>
						<path class="st4" d="M763.32,329.26c-0.14,0.04-0.29,0.05-0.46,0.04c-0.73-0.08-1.26-0.75-1.17-1.49
							c0.05-0.54-0.1-1.06-0.44-1.47c-0.32-0.41-0.8-0.69-1.33-0.73c-0.54-0.07-1.06,0.09-1.48,0.42c-0.42,0.33-0.67,0.82-0.74,1.36
							c-0.08,0.73-0.74,1.25-1.47,1.17c-0.74-0.08-1.26-0.73-1.19-1.47c0.14-1.27,0.76-2.38,1.74-3.17
							c0.97-0.76,2.19-1.12,3.44-0.98c1.23,0.15,2.34,0.74,3.13,1.71c0.78,0.98,1.12,2.21,0.98,3.45
							C764.29,328.68,763.86,329.13,763.32,329.26z"/>
						<path class="st4" d="M792.43,331.56c-0.15,0.04-0.31,0.04-0.47,0.02c-0.74-0.08-1.26-0.75-1.18-1.47
							c0.12-1.12-0.68-2.1-1.78-2.23c-1.11-0.11-2.09,0.69-2.21,1.77c-0.08,0.74-0.75,1.27-1.48,1.21c-0.74-0.1-1.25-0.77-1.18-1.48
							c0.3-2.57,2.6-4.41,5.18-4.14c1.25,0.15,2.35,0.76,3.14,1.74c0.79,0.98,1.14,2.19,0.99,3.45
							C793.39,330.98,792.95,331.43,792.43,331.56z"/>
					</g>
					<path class="st4" d="M786.74,375.56c-0.19,0-0.38,0-0.57-0.01c-0.83-0.01-1.5-0.7-1.49-1.53c0.01-0.83,0.77-1.47,1.53-1.49
						c17.15,0.09,26.35-11.27,26.44-11.39c0.51-0.66,1.46-0.77,2.12-0.26c0.66,0.51,0.77,1.45,0.26,2.12
						C814.63,363.51,805.05,375.56,786.74,375.56z"/>
				</g>
				<path class="st4" d="M812.38,301.77c6.55,5.13,17.01,2.79,23.37-5.29c6.36-8.08,6.2-18.8-0.35-23.96
					c-6.53-5.16-17-2.77-23.36,5.29C805.69,285.89,805.83,296.6,812.38,301.77z"/>
				<path class="st4" d="M824.45,282.2c14.43,13.71,39.86,10.4,56.78-7.42c16.91-17.81,18.91-43.38,4.48-57.11
					c-14.44-13.7-39.86-10.37-56.79,7.45C812,242.91,810,268.48,824.45,282.2z"/>
				<path class="st3" d="M710.97,459.45c-8.77,20.54-3.4,36.05,8.21,46.81l20.99,19.49l-10.81-105.61L710.97,459.45z"/>
				<g>
					<g>
						<path class="st5" d="M932.1,926.47c0.41-0.14,0.82-0.25,1.25-0.37c23.76-7.32,47.79-0.93,40.47-24.68l-69.67-223.3
							c-7.34-23.79-32.48-37.08-56.31-29.81c-23.77,7.31-37.12,32.52-29.81,56.29l58.99,191.68
							C884.22,919.68,908.68,932.95,932.1,926.47z"/>
					</g>
				</g>
				<path class="st4" d="M855.09,817.76l-34.13-102.37l0.6,103.08H724.3V584.82c0-10.01,1.19-18.88,8.53-23.55
					c4.21-2.56,7.11-3.13,7.11-3.13s47.32,17.07,120.35-0.17c1.31,0.28,3.18,0.69,5.46,1.6c8.13,3.18,10.87,11.66,12.74,21.49
					l68.78,235.51L855.09,817.76z"/>
				<path class="st4" d="M792.93,567.44c-17.21,0-35.23-1.71-50.53-6.87c-0.79-0.27-1.21-1.12-0.95-1.91
					c0.27-0.79,1.13-1.21,1.91-0.95c44.62,15.04,113.18,0.21,113.86,0.05c0.83-0.18,1.62,0.34,1.8,1.15
					c0.18,0.82-0.33,1.62-1.15,1.8C857.41,560.81,826.76,567.44,792.93,567.44z"/>
				<g>
					<path class="st5" d="M949.11,624.85c-18.42,5.2-38.27-3.92-46.04-21.95l-31.65-73.42l-46.48-67.5
						c-12.12-17.65-7.65-41.76,9.97-53.89c17.62-12.14,41.73-7.69,53.87,9.94l48.65,70.65c1.43,2.09,2.65,4.3,3.64,6.63l33.15,76.91
						c8.48,19.68-0.58,42.47-20.24,50.93C952.37,623.83,950.75,624.41,949.11,624.85z"/>
					<path class="st5" d="M902.85,650.78c2.63,8.71,19.14,10.57,26.58,9.79c13.27-1.38,25.86-4.7,36.74-13.07
						c24.08-18.52,24.17-64.93-1.21-82.2c-1.71-1.16-12.2,4.35-14.14,5.19c-8.79,3.81-18.85,11.53-28.27,13.18
						c-8.27,1.45-16.2-3.61-22.79,4.47c-6.04,7.41-3.71,15.88-4.32,24.62c-0.4,5.78-3.09,5.14-5.45,9.22
						c-2.75,4.71,1.16,8.68,5.73,9.18c4.79,0.53,9.18-1.53,12.95-4.13c6.06-4.21,13.32-6.79,13.86,3.05
						c0.43,7.52-3.57,10.63-10.85,11.56c-3.5,0.44-7.08,0.79-8.6,4.79C902.5,648.02,902.45,649.49,902.85,650.78z"/>
				</g>
			</g>
		</g>
	</g>
	<path class="st4" d="M857.22,832.78c-0.64,0-1.24-0.41-1.44-1.05L796.3,643.36l-18.11-5.8c-0.79-0.25-1.23-1.11-0.98-1.9
		c0.25-0.79,1.09-1.21,1.9-0.98l19.6,6.27l0.24,0.74l59.72,189.12c0.25,0.8-0.19,1.64-0.98,1.89
		C857.53,832.76,857.37,832.78,857.22,832.78z"/>
	<path class="st5" d="M812.19,339.76c0-6.02,4.88-10.9,10.9-10.9c6.02,0,10.9,4.88,10.9,10.9c0,6.02-4.88,10.91-10.9,10.91
		C817.08,350.67,812.19,345.79,812.19,339.76z"/>
	<path class="st4" d="M825.59,344.49c-0.33,0-0.67-0.12-0.94-0.36l-5.45-4.81c-0.37-0.33-0.54-0.82-0.46-1.3
		c0.08-0.48,0.41-0.89,0.87-1.08l6.51-2.65c0.71-0.3,1.55,0.05,1.85,0.78c0.3,0.73-0.06,1.56-0.78,1.86l-4.38,1.79l3.72,3.29
		c0.59,0.52,0.65,1.42,0.13,2C826.37,344.33,825.98,344.49,825.59,344.49z"/>
	<g>
		<g id="shoe_1_">
			<path class="st6" d="M803.02,985.88c9.24,0,16.69-7.49,16.64-16.73l-0.19-41.93l-0.06-4.35v-3.57l-15.95,0.05l-72.22,0.28
				c-0.22,0.1-0.44,0.22-0.67,0.27c-78.85,34.81-82.64,65.98-82.64,65.98H803.02z"/>
			<path class="st6" d="M803.47,919.35c0,0.05,0,0.05,0,0.05l15.33,7.48l0.67,0.34l-0.06-4.35c0.22-1.74,0.33-3.52,0.33-5.3v-18.63
				C808.76,903.52,803.86,918.13,803.47,919.35z"/>
			<path class="st6" d="M742.14,942.19c3.17,0,6.35-1.06,8.96-3.26c5.9-4.95,6.67-13.74,1.72-19.64l-21.84-26.03
				c-4.95-5.89-13.75-6.65-19.65-1.7c-5.9,4.94-6.66,13.74-1.71,19.63l21.85,26.03C734.22,940.5,738.17,942.19,742.14,942.19z"/>
		</g>
		<g>
			<path class="st4" d="M727.07,946.98c-0.66,0-1.32-0.24-1.85-0.71l-16.73-14.89c-1.15-1.02-1.25-2.78-0.23-3.94
				c1.03-1.15,2.78-1.25,3.94-0.22l16.73,14.89c1.15,1.02,1.25,2.78,0.23,3.94C728.6,946.66,727.84,946.98,727.07,946.98z"/>
			<path class="st4" d="M717.43,952.2c-0.66,0-1.32-0.24-1.85-0.71l-16.73-14.88c-1.15-1.02-1.25-2.78-0.23-3.93
				c1.03-1.15,2.78-1.26,3.94-0.23l16.73,14.88c1.15,1.02,1.25,2.78,0.23,3.93C718.96,951.88,718.2,952.2,717.43,952.2z"/>
			<path class="st4" d="M706.97,957.08c-0.66,0-1.32-0.24-1.85-0.71l-16.73-14.88c-1.15-1.02-1.25-2.78-0.23-3.94
				c1.03-1.15,2.78-1.25,3.94-0.22l16.73,14.88c1.15,1.02,1.25,2.78,0.23,3.94C708.5,956.77,707.74,957.08,706.97,957.08z"/>
		</g>
	</g>
	<g>
		<g id="shoe_2_">
			<path class="st6" d="M893.92,985.88c-9.24,0-16.69-7.49-16.64-16.73l0.19-41.93l0.06-4.35v-3.57l15.95,0.05l72.22,0.28
				c0.22,0.1,0.45,0.22,0.67,0.27c78.85,34.81,82.64,65.98,82.64,65.98H893.92z"/>
			<path class="st6" d="M893.47,919.35c0,0.05,0,0.05,0,0.05l-15.33,7.48l-0.67,0.34l0.06-4.35c-0.22-1.74-0.34-3.52-0.34-5.3
				v-18.63C888.17,903.52,893.08,918.13,893.47,919.35z"/>
			<path class="st6" d="M954.8,942.19c-3.17,0-6.35-1.06-8.96-3.26c-5.89-4.95-6.67-13.74-1.71-19.64l21.84-26.03
				c4.95-5.89,13.75-6.65,19.65-1.7c5.9,4.94,6.66,13.74,1.72,19.63l-21.85,26.03C962.72,940.5,958.77,942.19,954.8,942.19z"/>
		</g>
		<g>
			<path class="st4" d="M969.87,946.98c-0.77,0-1.53-0.32-2.08-0.93c-1.02-1.15-0.92-2.91,0.23-3.94l16.73-14.89
				c1.15-1.03,2.91-0.92,3.94,0.22c1.02,1.15,0.92,2.91-0.23,3.94l-16.73,14.89C971.19,946.74,970.53,946.98,969.87,946.98z"/>
			<path class="st4" d="M979.51,952.2c-0.77,0-1.53-0.32-2.08-0.94c-1.02-1.15-0.92-2.91,0.23-3.93l16.73-14.88
				c1.15-1.03,2.91-0.92,3.94,0.23c1.02,1.15,0.92,2.91-0.23,3.93l-16.73,14.88C980.83,951.97,980.17,952.2,979.51,952.2z"/>
			<path class="st4" d="M989.97,957.08c-0.77,0-1.53-0.32-2.08-0.93c-1.02-1.15-0.92-2.91,0.23-3.94l16.73-14.88
				c1.15-1.02,2.9-0.92,3.94,0.22c1.02,1.15,0.92,2.91-0.23,3.94l-16.73,14.88C991.29,956.85,990.63,957.08,989.97,957.08z"/>
		</g>
	</g>
</g>
<g>
	<g>
		<g>
			<g>
				<g>
					<g>
						<g id="shoe_8_">
							<path class="st6" d="M1475.96,669.63c-1.36,2.63-0.03,0.05-0.03,0.05l-19.54-2.89l-0.86-0.12l2.88-4.12
								c0.94-1.8-0.91,1.53,0.26-0.17l13.72-25.52C1479.89,648.41,1476.38,668.2,1475.96,669.63z"/>
						</g>
					</g>
				</g>
			</g>
		</g>
	</g>
</g>
</svg>
