<?xml version="1.0" encoding="utf-8"?>
<!-- Generator: Adobe Illustrator 27.1.0, SVG Export Plug-In . SVG Version: 6.00 Build 0)  -->
<svg version="1.1" id="Layer_1" xmlns="http://www.w3.org/2000/svg" xmlns:xlink="http://www.w3.org/1999/xlink" x="0px" y="0px"
	 viewBox="0 0 1200 1200" style="enable-background:new 0 0 1200 1200;" xml:space="preserve">
<style type="text/css">
	.st0{fill:#FFFFFF;}
	.st1{fill:#1A2E35;}
	.st2{fill:#F7ACB4;}
	.st3{opacity:0.2;}
	.st4{opacity:0.1;fill:#FFFFFF;}
	.st5{fill:#FF5551;}
	.st6{fill:#FF847F;}
	.st7{opacity:0.2;fill:#FFFFFF;}
	.st8{fill:#E1E1E1;}
	.st9{fill:#ECECEC;}
</style>
<g>
	<path class="st0" d="M467.01,703.37c0,80.1-48.36,148.92-117.51,178.82c-13.94,6.02-28.72,10.47-44.13,13.11
		c-10.76,1.84-21.82,2.8-33.09,2.8c-3.81,0-7.59-0.11-11.35-0.35c-13.3-0.75-26.22-2.82-38.64-6.13
		c-83.32-22.06-144.74-98-144.74-188.25c0-107.54,87.19-194.73,194.73-194.73S467.01,595.83,467.01,703.37z"/>
	<g>
		<path class="st1" d="M328.67,603.15h0.08c-22.12-7.97,4.98-47.54-34.83-65.6c-40.74-18.52-81.96,6.34-74.24,27.26
			c-13.4,3.81-16.92,36.16-0.59,51.27c-5.25,6.79-8.39,15.27-8.39,24.49c0,20.57,15.48,37.49,35.39,39.78c0.03,0,0.03,0,0.05,0
			c0.13,0.05,0.27,0.05,0.37,0.05h0.03c1.39,0.16,2.77,0.24,4.21,0.24c2.29,0,4.53-0.19,6.72-0.59h0.03
			c2.13-0.35,4.24-0.88,6.24-1.6h0.03c7.54-2.58,14.04-7.38,18.79-13.56c4.61,6,10.9,10.66,18.15,13.3c0,0,0,0,0.03,0.03
			c0.51,0.16,0.99,0.35,1.52,0.48c1.76,0.59,3.6,1.04,5.46,1.33c2.16,0.37,4.34,0.56,6.61,0.56c3.2,0,6.31-0.37,9.3-1.09
			c17.64-4.18,30.78-20.04,30.78-38.98C354.38,623.46,343.7,608.94,328.67,603.15z"/>
		<path class="st2" d="M237.91,717.09c-0.08-1.78-0.16-3.28-0.35-5.49c-0.69-7.75-7.41-13.67-15.24-13.27
			c-7.27,0.37-13.03,6-13.78,12.98c-0.03,0.03-0.03,0.05,0,0.08c-0.11,0.75-0.11,1.49-0.08,2.24l0.03,0.61
			c0.05,0.85,0.11,2.42,0.11,3.7l0.03,4.16c0,2.77-0.11,5.62-0.27,8.45c-0.24,4.48-0.61,9.01-1.15,13.48
			c-0.13,1.17-0.27,2.37-0.43,3.54c-1.49,11.35-3.78,22.6-7.03,33.57c-0.77,2.74-1.76,5.44-2.58,8.18
			c-0.88,2.72-1.97,5.36-2.96,8.05l-1.12,3.06c-0.27,0.67-0.53,1.15-0.53,1.31c-0.43-0.11-0.91-0.29-1.41-0.56
			c-1.86-0.83-4-2.21-6.1-3.78c-4.21-3.12-8.63-7.22-12.55-11.11l-0.35-0.32c-0.16-0.13-0.27-0.24-0.43-0.4h-0.03
			c-2.08-1.71-4.98-2.24-7.62-1.09c-3.68,1.63-5.38,5.94-3.76,9.65c1.25,2.82,2.56,5.28,4.02,7.81c0.21,0.4,0.45,0.8,0.69,1.2
			c1.68,2.9,3.65,5.7,5.84,8.47c2.24,2.74,4.74,5.46,7.99,8.05c3.25,2.45,7.27,5.14,13.56,6.1c3.14,0.4,6.85,0.11,10.21-1.17
			c3.36-1.23,6.13-3.22,8.23-5.25c2.13-2.03,3.62-4.1,4.88-6.1c0.61-0.99,1.17-1.97,1.65-2.93c0.27-0.51,0.45-0.93,0.61-1.31
			c0.03-0.03,0-0.03,0-0.03c0.16-0.35,0.32-0.64,0.48-1.01c2.82-5.94,5.38-11.99,7.57-18.17c0.48-1.33,0.93-2.66,1.39-4.02
			c0.24-0.69,0.48-1.41,0.69-2.13c3.28-10.05,5.73-20.33,7.38-30.75c0.05-0.4,0.13-0.77,0.19-1.17c0.13-0.91,0.27-1.81,0.4-2.72
			v-0.19c0.08-0.43,0.16-0.91,0.21-1.36v-0.08c0.69-5.06,1.17-10.15,1.41-15.27c0.05-0.93,0.11-1.89,0.13-2.82
			c0.11-2.37,0.16-4.74,0.16-7.11C238.05,720.48,237.99,718.8,237.91,717.09z"/>
		<path d="M222.19,685.12c21.45-9.92,35.59,32.74,31.72,67.71c-30.47,4.28-55.94-14.2-55.94-14.2S197.12,696.71,222.19,685.12z"/>
		<path d="M208.56,706.58c-0.29,21.22,2.8,64.32,17.02,151.75h115.93c-1.77-42.84-1.97-70.76,14.88-148
			c3.06-14.05-6.57-27.68-20.83-29.52c-7.01-0.9-14.84-1.69-22.73-2.07c-19.51-0.94-35.49-1.56-52.64,0
			c-10.75,0.98-22.18,2.68-31.21,4.19C217.36,684.88,208.72,694.8,208.56,706.58z"/>
		<path class="st3" d="M333,723.1l19.5,5.57c-2.67,13.19-4.79,24.82-6.44,35.27C331.68,759.32,318.37,733.73,333,723.1z"/>
		<path class="st2" d="M163.52,767.59l-10.36-11.92c-2.78-3.2-7.96-2.3-9.5,1.64l-6.01,15.36c-0.73,1.86-0.42,3.96,0.82,5.54
			l10.45,13.31c0,0,8.53,10.52,20.37,11.36l4.56-12.63L163.52,767.59z"/>
		<g>
			<path class="st0" d="M250.21,723.89l2.76,4.25l4.39-2.54c23.26-13.49,39.15-28.31,46.55-35.94c2.95-3.05,4.2-7.19,3.66-11.16
				c-17.17-0.79-31.81-1.17-47.39,0.25c-4.47,0.41-9.05,0.94-13.53,1.53c-0.27,0.32-0.56,0.63-0.8,0.98
				C242.25,686.49,235.46,701.14,250.21,723.89z"/>
		</g>
		<path class="st2" d="M298.33,621.58c-2.61,15.1-4.97,41.33,3.01,54.73c1.84,3.09,1.26,7.04-1.25,9.63
			c-7.28,7.51-22.74,21.9-45.4,35.04c-12.82-19.76-7.74-31.92-4.43-36.72c0.95-1.38,2.33-2.42,3.92-2.93
			c16.78-5.37,15.92-18.83,12.46-31.45L298.33,621.58z"/>
		<path class="st3" d="M290.29,635.11l-23.64,14.76c0.86,3.1,1.54,6.24,1.83,9.31c5.49-0.12,18.72-5.72,22.4-14.93
			C292.29,640.73,290.94,636.85,290.29,635.11z"/>
		<path class="st2" d="M300.8,575.28c7.05,27.44,10.62,38.9,1.5,57.1c-13.72,27.38-48.96,30.04-64.07,5.27
			c-13.6-22.3-22.85-63.42,0.02-82.65C260.79,536.06,293.75,547.84,300.8,575.28z"/>
		<path class="st1" d="M281.03,564.5c4.66,19.32,24.53,29.88,24.53,29.88s8.59-15,2.69-29.88
			C302.34,549.62,281.03,564.5,281.03,564.5z"/>
		<path class="st1" d="M295.03,577.73c-6.21,6.49-5.38,16.63-5.38,16.63s7.81-0.4,12.03-6.28
			C305.9,582.2,295.03,577.73,295.03,577.73z"/>
		<path class="st1" d="M295.37,572.93c-7.57,4.83-9.17,14.88-9.17,14.88s7.68,1.47,13.17-3.24
			C304.86,579.85,295.37,572.93,295.37,572.93z"/>
		<path class="st1" d="M226.26,564.95c-5.6,17.99,84.21,11.99,76.15-2.66c-8.06-14.66-28.93-22.2-42.37-20.87
			C246.61,542.74,230.56,552.29,226.26,564.95z"/>
		<path class="st1" d="M229.59,560.21c-6.95,1.46-11.31,27.98-6.83,26.65C227.26,585.53,253.73,555.13,229.59,560.21z"/>
		<g>
			<path class="st1" d="M310.47,858.32c0,0-0.27,1.84-0.75,5.22c-0.83,6.08-2.37,17.16-4.34,31.76c-10.76,1.84-21.82,2.8-33.09,2.8
				c-3.81,0-7.59-0.11-11.35-0.35c-13.3-0.75-26.22-2.82-38.64-6.13c1.23-12.76,2.18-22.54,2.74-28.08
				c0.35-3.38,0.53-5.22,0.53-5.22H310.47z"/>
			<path class="st4" d="M310.47,858.32c0,0-0.27,1.84-0.75,5.22c-0.83,6.08-2.37,17.16-4.34,31.76c-10.76,1.84-21.82,2.8-33.09,2.8
				c-3.81,0-7.59-0.11-11.35-0.35c-13.3-0.75-26.22-2.82-38.64-6.13c1.23-12.76,2.18-22.54,2.74-28.08
				c0.35-3.38,0.53-5.22,0.53-5.22H310.47z"/>
		</g>
		<g>
			<path class="st1" d="M343.78,863.54c2.32,5.7,4.18,11.94,5.73,18.65c-13.94,6.02-28.72,10.47-44.13,13.11
				c-10.76,1.84-21.82,2.8-33.09,2.8c-3.81,0-7.59-0.11-11.35-0.35c-1.95-15.75-3.38-27.79-4.13-34.21
				c-0.4-3.38-0.61-5.22-0.61-5.22h85.32C342.31,859.99,343.08,861.75,343.78,863.54z"/>
			<path class="st4" d="M343.78,863.54c2.32,5.7,4.18,11.94,5.73,18.65c-13.94,6.02-28.72,10.47-44.13,13.11
				c-10.76,1.84-21.82,2.8-33.09,2.8c-3.81,0-7.59-0.11-11.35-0.35c-1.95-15.75-3.38-27.79-4.13-34.21
				c-0.4-3.38-0.61-5.22-0.61-5.22h85.32C342.31,859.99,343.08,861.75,343.78,863.54z"/>
		</g>
		<path class="st1" d="M259.98,597.59c0.71,2.19,0.12,4.34-1.31,4.81c-1.43,0.46-3.17-0.94-3.88-3.13
			c-0.71-2.19-0.12-4.34,1.31-4.81C257.53,594,259.27,595.4,259.98,597.59z"/>
		<path class="st1" d="M235.22,605.6c0.71,2.19,0.12,4.34-1.31,4.81c-1.43,0.46-3.17-0.94-3.88-3.13c-0.71-2.19-0.12-4.34,1.31-4.81
			C232.77,602.01,234.51,603.41,235.22,605.6z"/>
		<path class="st1" d="M232.01,602.39l-5.75,0.19C226.26,602.58,230.29,605.81,232.01,602.39z"/>
		<path class="st5" d="M243.9,606.47c0,0-0.67,10.63-3.29,16.51c3.77,1.76,8.28-1.06,8.28-1.06L243.9,606.47z"/>
		<path class="st1" d="M264.5,625.73c-1.07,0.57-2.26,1.08-3.57,1.51c-0.35,0.11-0.74-0.08-0.85-0.44
			c-0.11-0.35,0.07-0.73,0.44-0.85c9.61-3.1,11.93-11.28,11.95-11.36c0.1-0.36,0.47-0.57,0.83-0.48c0.36,0.1,0.57,0.47,0.48,0.83
			C273.68,615.26,271.82,621.85,264.5,625.73z"/>
		<path class="st2" d="M311.58,593.07c0.59,5.84-1.56,11.42-4.67,15.11c-4.68,5.55-11.09,2.35-13.2-4.19
			c-1.9-5.89-1.76-15.88,4.58-19.05C304.53,581.81,310.9,586.39,311.58,593.07z"/>
		<path class="st1" d="M266.1,584.37c-0.35,0.05-0.73-0.03-1.03-0.27c-4.77-3.69-9.48-2.12-9.54-2.1c-0.7,0.24-1.47-0.13-1.72-0.84
			c-0.24-0.71,0.13-1.47,0.84-1.72c0.25-0.08,6.17-2.07,12.08,2.52c0.59,0.46,0.7,1.31,0.24,1.9
			C266.74,584.15,266.43,584.32,266.1,584.37z"/>
		<path class="st1" d="M223.71,600.85c-0.3,0.14-0.66,0.17-1,0.06c-0.71-0.24-1.09-1.01-0.85-1.71c2.4-7.08,8.42-8.71,8.68-8.77
			c0.72-0.19,1.46,0.25,1.65,0.97c0.19,0.72-0.25,1.46-0.97,1.65c-0.24,0.06-4.89,1.39-6.8,7.02
			C224.29,600.42,224.03,600.7,223.71,600.85z"/>
		<path class="st2" d="M367.04,747.87c-1.17-6.34-2.5-12.66-3.97-18.89c-0.51-2.18-1.04-4.34-1.57-6.5
			c-1.47-5.68-2.9-11.22-4.56-16.84v-0.03c-0.8-2.72-1.65-5.44-2.58-8.23c-2.43-7.38-10.31-11.62-17.85-9.46
			c-7.75,2.21-12.26,10.29-10.02,18.04l0.05,0.21c1.65,5.86,3.41,11.96,5.04,18.09c0.48,1.81,0.96,3.65,1.41,5.46
			c1.23,4.8,2.4,9.62,3.54,14.42c0.75,3.14,1.46,6.29,2.16,9.43c0.53,2.45,1.04,4.88,1.52,7.33c1.12,5.52,2.13,11,3.01,16.49
			c0.16,1.12,0.32,2.27,0.48,3.38c0.56,4.13,1.07,8.23,1.44,12.28c-0.91-0.11-1.84-0.27-2.77-0.45c-0.4-0.08-0.8-0.16-1.2-0.24
			c-6.58-1.49-13.72-3.84-20.73-6.47c-7.03-2.61-14.12-5.54-21.18-8.55c-6.77-2.82-13.54-5.92-20.17-8.9
			c-0.32-0.13-0.64-0.29-0.96-0.43l-0.13-0.05c-3.04-1.36-6.71-0.51-8.79,2.29c-2.4,3.2-1.73,7.75,1.49,10.15
			c0.85,0.64,1.71,1.28,2.58,1.86c0.03,0,0.03,0,0.03,0c5.65,4.13,11.4,7.89,17.24,11.64c6.79,4.24,13.72,8.26,20.97,12.04
			c7.27,3.68,14.68,7.25,23.18,9.97c2,0.61,4,1.2,6.15,1.68c2.53,0.59,5.3,1.04,8.5,1.2c3.01,0.05,6.5,0.08,11.19-1.89
			c2.29-1.01,4.88-2.61,6.95-5.06c2.08-2.37,3.41-5.22,4.13-7.78c0.21-0.88,0.37-1.84,0.4-2.77v-0.51
			C372.42,782.4,370.16,764.98,367.04,747.87z"/>
		<path d="M330.1,680.15c23.49,2.62,29.92,9.83,41.98,42.88c-25.4,17.37-50.02,28.12-50.02,28.12S302.65,677.09,330.1,680.15z"/>
		<g>
			<path class="st1" d="M343.24,851.52l2.96,10.38c0.41,0.8-0.55,1.63-1.89,1.63H225.01c-1.05,0-1.91-0.51-1.98-1.17l-1.05-10.38
				c-0.07-0.72,0.83-1.33,1.98-1.33h117.39C342.22,850.65,342.98,851.01,343.24,851.52z"/>
		</g>
		<g>
			<path class="st1" d="M327.48,864.65h3.14c0.63,0,1.1-0.32,1.06-0.72l-1.47-13.48c-0.04-0.39-0.59-0.72-1.22-0.72h-3.14
				c-0.63,0-1.1,0.32-1.06,0.72l1.47,13.48C326.3,864.33,326.85,864.65,327.48,864.65z"/>
			<path class="st4" d="M327.48,864.65h3.14c0.63,0,1.1-0.32,1.06-0.72l-1.47-13.48c-0.04-0.39-0.59-0.72-1.22-0.72h-3.14
				c-0.63,0-1.1,0.32-1.06,0.72l1.47,13.48C326.3,864.33,326.85,864.65,327.48,864.65z"/>
		</g>
		<g>
			<path class="st1" d="M233.84,864.65h3.14c0.63,0,1.1-0.32,1.06-0.72l-1.47-13.48c-0.04-0.39-0.59-0.72-1.22-0.72h-3.14
				c-0.63,0-1.1,0.32-1.06,0.72l1.47,13.48C232.67,864.33,233.22,864.65,233.84,864.65z"/>
			<path class="st4" d="M233.84,864.65h3.14c0.63,0,1.1-0.32,1.06-0.72l-1.47-13.48c-0.04-0.39-0.59-0.72-1.22-0.72h-3.14
				c-0.63,0-1.1,0.32-1.06,0.72l1.47,13.48C232.67,864.33,233.22,864.65,233.84,864.65z"/>
		</g>
		<g>
			<path class="st1" d="M280.66,864.65h3.14c0.63,0,1.1-0.32,1.06-0.72l-1.47-13.48c-0.04-0.39-0.59-0.72-1.22-0.72h-3.14
				c-0.63,0-1.1,0.32-1.06,0.72l1.47,13.48C279.49,864.33,280.03,864.65,280.66,864.65z"/>
			<path class="st4" d="M280.66,864.65h3.14c0.63,0,1.1-0.32,1.06-0.72l-1.47-13.48c-0.04-0.39-0.59-0.72-1.22-0.72h-3.14
				c-0.63,0-1.1,0.32-1.06,0.72l1.47,13.48C279.49,864.33,280.03,864.65,280.66,864.65z"/>
		</g>
		<path d="M255.74,786.38h-23.19c-2.28,0-4.25-1.56-4.78-3.77L216.11,734c-0.59-2.47,1.17-4.74,3.68-4.74h23.15
			c2.3,0,4.3,1.58,4.84,3.81l11.64,48.57C260,784.12,258.25,786.38,255.74,786.38z"/>
		<path class="st1" d="M252.99,786.38h-23.15c-2.3,0-4.3-1.58-4.84-3.81L213.37,734c-0.59-2.47,1.17-4.74,3.68-4.74h23.15
			c2.3,0,4.3,1.58,4.84,3.81l11.64,48.57C257.26,784.12,255.5,786.38,252.99,786.38z"/>
		<path class="st2" d="M280.52,781.04l-0.69-11.76l-16.61-18.89c-2.43-2.77-5.72-4.64-9.34-5.32l-10.68-2
			c-3.76-0.71-7.21,2.25-7.09,6.07l0.46,15.11c0.07,2.36,1.52,4.45,3.7,5.35l18.78,7.76l0,0
			C264.12,780.31,273.18,784.38,280.52,781.04z"/>
		<path class="st1" d="M256.77,594.38l-5.75,0.19C251.02,594.57,255.05,597.8,256.77,594.38z"/>
	</g>
	<path d="M272.28,899.42c-108.11,0-196.06-87.95-196.06-196.06S164.17,507.3,272.28,507.3c108.11,0,196.06,87.95,196.06,196.06
		S380.39,899.42,272.28,899.42z M272.28,509.97c-106.64,0-193.39,86.76-193.39,193.39c0,106.64,86.76,193.39,193.39,193.39
		c106.64,0,193.39-86.76,193.39-193.39C465.67,596.72,378.92,509.97,272.28,509.97z"/>
</g>
<g>
	<path class="st0" d="M1122.67,513.92c0,92.12-63.98,169.31-149.94,189.53c-14.36,3.41-29.36,5.2-44.79,5.2
		c-32.72,0-63.55-8.07-90.62-22.33c-61.9-32.61-104.11-97.58-104.11-172.4c0-107.54,87.19-194.73,194.73-194.73
		S1122.67,406.37,1122.67,513.92z"/>
	<g>
		<path class="st1" d="M920.97,374.24c-23.91-12.51-37.97,18.58-32.2,40.34c5.77,21.76,20.87,35.6,20.87,35.6
			s22.81-32.91,22.9-48.36C932.66,382.67,929.89,378.9,920.97,374.24z"/>
		<path class="st1" d="M907.16,441.37c-0.75-4.74-14.66-1.71-11.24,3.42C899.34,449.93,907.51,443.59,907.16,441.37z"/>
		<path class="st1" d="M906,442.05c-4.41-1.91-9.3,11.46-3.14,11.32C909.03,453.24,908.06,442.95,906,442.05z"/>
		<path class="st1" d="M914.35,379.64c-11.14-11.03,14.78-20.5,40.01-16.06c25.23,4.44,33.42,26.57,24.53,37.42
			C971.82,409.62,928.03,393.18,914.35,379.64z"/>
		<path class="st1" d="M913.32,373.02c3.98-2.69-4.68-14-7.87-8.72C902.25,369.58,911.45,374.28,913.32,373.02z"/>
		<path class="st1" d="M987.54,585.33c-0.08,2.48-0.16,5.04-0.27,7.65c-0.08,1.41-0.13,2.88-0.21,4.34
			c-0.21,3.81-0.45,7.73-0.75,11.75c-0.11,1.71-0.24,3.41-0.4,5.14c0,0.24-0.03,0.48-0.05,0.72c-0.13,1.76-0.27,3.54-0.45,5.36
			c-0.59,6.53-1.31,13.32-2.16,20.36c-2.32,19.08-5.73,40.02-10.52,62.8c-14.36,3.41-29.36,5.2-44.79,5.2
			c-32.72,0-63.55-8.07-90.62-22.33c1.52-12.71,3.52-29.26,5.17-48.39c0.91-10.39,1.73-21.58,2.32-33.31
			c0.03-0.88,0.08-1.79,0.11-2.66c0.13-2.85,0.27-5.73,0.37-8.63c0.05-1.79,0.11-3.57,0.16-5.38c0.08-2.43,0.13-4.88,0.19-7.35
			l0.08-6.07v-2.56c0.03-1.36,0.03-2.75,0.03-4.13c0-4.66-0.05-9.35-0.16-14.1v-0.24c-0.27-12.26-0.91-24.75-2.03-37.36
			c-0.05-0.75-0.11-1.52-0.19-2.26c-0.59-6.34,1.47-12.34,5.22-16.89c3.94-4.82,9.83-8.05,16.55-8.47c0.13,0,0.29,0,0.43-0.03
			c3.06-0.19,6.34-0.32,9.65-0.43c3.01-0.08,6.08-0.13,9.14-0.11h1.73c1.62,0.03,3.36,0.05,5.12,0.11c1.86,0.05,3.81,0.11,5.78,0.16
			c1.65,0.03,3.3,0.08,4.98,0.13c9.49,0.35,19.58,0.88,28.46,1.68c0.59,0.05,1.17,0.11,1.73,0.16c3.41,0.32,6.58,0.69,9.46,1.09
			c0.56,0.08,1.12,0.16,1.65,0.24c2.32,0.35,4.61,0.75,6.85,1.2c0.37,0.05,0.75,0.13,1.09,0.21c3.68,0.72,7.19,1.52,10.47,2.29
			c11.48,2.8,19.82,5.65,19.82,5.65s0.03,0.05,0.05,0.16c0.29,1.23,2.29,9.41,3.94,24.25c1.12,10.15,2.11,23.45,2.27,39.73
			c0,0,0,0,0,0.03C987.84,571.34,987.78,578.11,987.54,585.33z"/>
		<path class="st2" d="M1029.62,639.01c-0.24-3.54-0.72-5.87-1.24-8.13c-1.12-4.69-2.08-7.28-3.07-10.68l-5.9-19.55l-11.8-39.25
			c-3.95-13.08-8.03-26.2-12.24-39.14l-36.54,11.09c3.81,13.37,7.93,26.5,12.31,39.63c4.35,13.12,8.9,26.19,13.71,39.21
			c0.27,0.75,0.55,1.49,0.83,2.23l-12.36,11.01c3.64,6.49,7.63,12.34,12.27,18.23c2.39,2.88,4.79,5.83,7.87,8.72
			c1.55,1.46,3.22,2.95,5.5,4.55c1.2,0.81,2.51,1.67,4.55,2.55c0.51,0.22,1.03,0.43,1.74,0.65l1,0.31l1.27,0.3
			c1.64,0.33,4.16,0.68,7.54,0.01c0.91-0.2,1.8-0.45,2.67-0.77c0.98-0.38,1.95-0.86,2.87-1.4c1.76-1.04,3.62-2.7,4.7-4.1
			c2.54-3.26,3.18-5.65,3.76-7.78C1029.89,642.8,1029.67,640.89,1029.62,639.01z"/>
		<path class="st1" d="M955.8,515.12c-9.87,21.97,21.29,84.94,21.29,84.94l42.32-11.66c0,0,1.55-37.5-14.18-64.39
			C989.09,496.39,966.63,491.01,955.8,515.12z"/>
		<path d="M957.91,498.46c-1.1-2.88-3.67-4.95-6.7-5.55c-0.36-0.07-0.73-0.14-1.09-0.21c-2.25-0.45-4.54-0.84-6.86-1.2
			c-15.53-2.39-41.64-3.36-58.9-3.57c-0.01,0.01,0,0.01-0.01,0.02l5.44,6.52c7.29,8.68,20.87,24.85,46.23,28.04
			c1.92,0.24,3.74,0.36,5.43,0.36c0,0,0,0,0,0c9.86,0,14.31-4.19,16.31-7.72C960.64,510.07,959.96,503.82,957.91,498.46z"/>
		<path class="st3" d="M869.01,543.88l-23.43,9.1c0.01,0.26,0.02,0.48-0.01,0.73c0.3,13.6,0.17,26.89-0.32,39.61
			C869.68,583.18,870.09,552.78,869.01,543.88z"/>
		<path class="st2" d="M906.88,453.31c0.92,13.22-1.42,27.28-11.42,36.38c-0.85,0.77-0.99,2.06-0.24,2.93
			c8.93,10.43,20.8,22,41.48,24.59c21.17,2.66,19.38-11.83,14.61-20.37c-0.24-0.44-0.66-0.76-1.13-0.92
			c-17.15-6.11-15.22-17.94-13.21-30.94c0.42-2.75-0.96-5.46-3.43-6.73l-19.17-9.85C910.8,446.58,906.6,449.32,906.88,453.31z"/>
		<path class="st3" d="M936.84,465.74l-20.81-0.75c0.32,0.97,0.72,1.95,1.13,2.89c2.83,6.82,10.76,12.31,19.23,15.24
			C934.99,477.97,935.9,471.98,936.84,465.74z"/>
		<path class="st2" d="M911.89,403.08c-7.1,23.97-12.47,37.64-5.01,53.99c11.22,24.59,44.08,24.39,58.19,3.02
			c12.71-19.23,22.18-55.21,2.62-72.89C948.43,369.77,918.99,379.11,911.89,403.08z"/>
		<path class="st1" d="M906.15,426.13c16.96,9.04,39.9-50.6,15.41-50.6C897.08,375.52,898.21,421.89,906.15,426.13z"/>
		<path class="st2" d="M893.89,415.81c-0.23,6.74,2.67,12.95,6.52,16.94c5.79,6,10.74,1.48,12.65-6.19
			c1.72-6.9,2.92-17.96-4.58-21.1C901.09,402.38,894.15,408.11,893.89,415.81z"/>
		<path class="st1" d="M943.88,421.49c-0.7,1.91-0.25,3.83,1,4.28s2.82-0.73,3.52-2.63c0.7-1.91,0.25-3.83-1-4.28
			C946.15,418.4,944.57,419.58,943.88,421.49z"/>
		<path class="st1" d="M967.41,430.7c-0.69,1.91-0.25,3.83,1,4.28c1.25,0.45,2.82-0.73,3.52-2.63c0.69-1.91,0.25-3.83-1-4.28
			C969.68,427.61,968.11,428.79,967.41,430.7z"/>
		<path class="st6" d="M959.45,428.89c0,0,0.33,12.6,3.18,19.65c-4.53,1.92-9.74-1.61-9.74-1.61L959.45,428.89z"/>
		<path class="st1" d="M947.7,452.29c-7.22-2.95-9.35-9.04-9.44-9.33c-0.1-0.31,0.06-0.65,0.38-0.75c0.31-0.1,0.65,0.06,0.76,0.37
			c0.02,0.07,2.52,7.15,11.13,9.38c0.32,0.08,0.51,0.41,0.43,0.73c-0.08,0.32-0.41,0.51-0.73,0.43
			C949.32,452.89,948.48,452.61,947.7,452.29z"/>
		<path class="st1" d="M942.91,412.26c-0.18-0.09-0.33-0.23-0.45-0.41c-0.36-0.55-0.2-1.29,0.35-1.65c5.54-3.58,10.6-1.4,10.81-1.3
			c0.6,0.27,0.87,0.97,0.6,1.58c-0.27,0.6-0.97,0.87-1.57,0.61l0,0c-0.17-0.07-4.13-1.73-8.55,1.13
			C943.74,412.44,943.28,412.45,942.91,412.26z"/>
		<path class="st1" d="M981.56,426.75c-0.34-0.18-0.59-0.52-0.63-0.93c-0.54-5.24-4.32-7.29-4.48-7.37
			c-0.58-0.31-0.81-1.03-0.51-1.61c0.3-0.58,1.02-0.81,1.6-0.51c0.21,0.11,5.08,2.68,5.76,9.25c0.07,0.66-0.41,1.24-1.06,1.31
			C981.99,426.9,981.76,426.86,981.56,426.75z"/>
		<g>
			<path class="st2" d="M926.78,573.98c-8.52,3.66-17.17,7.58-25.83,11.07c-8.62,3.63-17.27,7.1-25.87,10.31
				c-8.6,3.15-17.21,6.17-25.44,8.16c-1.84,0.46-3.67,0.87-5.42,1.2c0.73-2.78,1.53-5.57,2.44-8.38c2.58-8.05,6.02-16.06,9.72-24.03
				c3.81-7.94,7.97-15.82,12.46-23.56c2.21-3.89,4.51-7.74,6.88-11.52l3.6-5.62c1.15-1.81,2.47-3.83,3.46-5.28l-30.9-22.43
				c-1.78,2.42-3.12,4.33-4.6,6.49c-1.42,2.11-2.78,4.24-4.13,6.37c-2.69,4.27-5.28,8.58-7.77,12.95
				c-4.91,8.79-9.43,17.85-13.39,27.28c-3.99,9.42-7.38,19.2-10.01,29.45c-1.35,5.11-2.36,10.38-3.12,15.77
				c-0.2,1.34-0.38,2.69-0.51,4.07l-0.22,2.05l-0.11,1.03l-0.12,1.81c-0.15,2.35-0.01,5.4,0.78,8.68c0.84,3.42,2.71,7.33,5.57,10.45
				c2.89,3.21,6.27,5.1,9.21,6.27c3.03,1.19,5.44,1.53,7.77,1.82c4.47,0.41,7.91,0.02,11.11-0.44c6.32-1,11.49-2.65,16.54-4.38
				c9.94-3.66,18.96-7.87,27.72-12.46c17.53-9.14,33.79-19.43,49.72-30.79L926.78,573.98z"/>
			<path class="st1" d="M860.9,489.62c-23.88,3.14-43.18,73.2-43.18,73.2l48.18,15.71c0,0,7.28-14.95,22.09-42.33
				C904.13,506.37,889.83,485.81,860.9,489.62z"/>
			<path class="st2" d="M955.2,561.15l-12.09-0.72c-2.15-0.13-4.26,0.59-5.88,1.99l-17.45,15.05l6.86,13.66
				c10.21,7.2,27.19-8.95,27.19-8.95l6.22-1.47c4.88-1.16,7.1-6.83,4.31-10.99l-3.62-5.39C959.48,562.45,957.43,561.28,955.2,561.15
				z"/>
		</g>
		<path class="st0" d="M970.25,620.14l-20.45-3.13c-2.12-0.32-3.36-2.55-2.54-4.52l20.16-48.04c0.58-1.39,2.04-2.21,3.53-1.98
			l20.45,3.13c2.12,0.32,3.36,2.55,2.54,4.52l-20.16,48.04C973.2,619.55,971.74,620.37,970.25,620.14z"/>
		<path d="M973.01,620.52l-20.45-3.12c-2.12-0.32-3.36-2.55-2.54-4.52l20.16-48.04c0.58-1.39,2.04-2.21,3.53-1.98l20.45,3.13
			c2.12,0.32,3.36,2.55,2.54,4.52l-20.16,48.04C975.95,619.93,974.5,620.74,973.01,620.52z"/>
		<path class="st2" d="M991.47,615.27l-21.13-25.58l-11.76,26.15c0,0,6.98,9.8,18.51,11.31L991.47,615.27z"/>
		<path class="st2" d="M946.3,593.29l1.25,8.64c0.39,2.69,1.68,5.16,3.66,7.02l7.38,6.89l11.76-26.15l-16.36-3.56
			C949.63,585.18,945.66,588.87,946.3,593.29z"/>
		<path class="st1" d="M949.61,390.54c-7,15.3,39.48,33.37,39.43,11.76C988.99,380.69,952.89,383.38,949.61,390.54z"/>
		<path class="st1" d="M920.82,381.61c-6.03,18.25,78.4,28.08,74.25,3.95C990.93,361.43,923.64,373.06,920.82,381.61z"/>
		<path class="st1" d="M945.98,386.84c7,15.3,51.06-8.07,34.67-22.16C964.27,350.6,942.7,379.68,945.98,386.84z"/>
	</g>
	<path d="M927.94,709.96c-108.11,0-196.06-87.95-196.06-196.06s87.95-196.06,196.06-196.06S1124,405.8,1124,513.91
		S1036.05,709.96,927.94,709.96z M927.94,320.51c-106.64,0-193.39,86.76-193.39,193.39c0,106.64,86.76,193.39,193.39,193.39
		c106.64,0,193.39-86.76,193.39-193.39C1121.34,407.27,1034.58,320.51,927.94,320.51z"/>
</g>
<g>
	<path d="M414.26,346.4h-2.81v-34.23c0-23.73,19.3-43.03,43.03-43.03v2.81c-22.18,0-40.22,18.05-40.22,40.23V346.4z"/>
	<rect x="411.46" y="367.54" width="2.81" height="22.2"/>
	<g>
		<path class="st0" d="M745.74,929.07H454.49c-18.5,0-33.63-15.14-33.63-33.63V312.17c0-18.5,15.14-33.63,33.63-33.63h291.25
			c18.5,0,33.63,15.14,33.63,33.63v583.27C779.37,913.94,764.23,929.07,745.74,929.07z"/>
		<path d="M745.74,930.47H454.49c-19.32,0-35.04-15.72-35.04-35.04V312.17c0-19.32,15.72-35.04,35.04-35.04h291.25
			c19.32,0,35.04,15.72,35.04,35.04v583.27C780.77,914.76,765.05,930.47,745.74,930.47z M454.49,279.94
			c-17.77,0-32.23,14.46-32.23,32.23v583.27c0,17.77,14.46,32.23,32.23,32.23h291.25c17.77,0,32.23-14.46,32.23-32.23V312.17
			c0-17.77-14.46-32.23-32.23-32.23H454.49z"/>
	</g>
	<path d="M745.74,278.54H454.49c-18.5,0-33.63,15.14-33.63,33.63h358.52C779.37,293.67,764.23,278.54,745.74,278.54z"/>
	<path class="st0" d="M475.83,295.35c0,5.64-4.57,10.21-10.21,10.21c-5.64,0-10.21-4.57-10.21-10.21c0-5.64,4.57-10.21,10.21-10.21
		C471.26,285.15,475.83,289.72,475.83,295.35z"/>
	<path class="st0" d="M739.53,295.35c0,1.27-1.03,2.3-2.3,2.3s-2.3-1.03-2.3-2.3c0-1.27,1.03-2.3,2.3-2.3
		S739.53,294.08,739.53,295.35z"/>
	<path class="st0" d="M739.53,303.64c0,1.27-1.03,2.3-2.3,2.3s-2.3-1.03-2.3-2.3c0-1.27,1.03-2.3,2.3-2.3
		S739.53,302.37,739.53,303.64z"/>
	<circle class="st0" cx="737.23" cy="287.06" r="2.3"/>
	<path class="st7" d="M558.18,300.17h-68.07c-2.65,0-4.81-2.17-4.81-4.81l0,0c0-2.65,2.17-4.81,4.81-4.81h68.07
		c2.65,0,4.81,2.17,4.81,4.81l0,0C562.99,298,560.83,300.17,558.18,300.17z"/>
	<path d="M746.24,437.62H563.36c-6.7,0-12.13-5.43-12.13-12.13v-66.96c0-6.7,5.43-12.13,12.13-12.13h182.88
		c6.7,0,12.13,5.43,12.13,12.13v66.96C758.37,432.19,752.94,437.62,746.24,437.62z"/>
	<path class="st8" d="M636.87,505.49H453.98c-6.7,0-12.13-5.43-12.13-12.13v-23.54c0-6.7,5.43-12.13,12.13-12.13h182.88
		c6.7,0,12.13,5.43,12.13,12.13v23.54C649,500.06,643.57,505.49,636.87,505.49z"/>
	<path class="st8" d="M636.87,751.42H453.98c-6.7,0-12.13-5.43-12.13-12.13V605.55c0-6.7,5.43-12.13,12.13-12.13h182.88
		c6.7,0,12.13,5.43,12.13,12.13v133.74C649,745.99,643.57,751.42,636.87,751.42z"/>
	<path d="M746.24,817.27h-73.15c-6.7,0-12.13-5.43-12.13-12.13v-23.54c0-6.7,5.43-12.13,12.13-12.13h73.15
		c6.7,0,12.13,5.43,12.13,12.13v23.54C758.37,811.84,752.94,817.27,746.24,817.27z"/>
	<path class="st0" d="M715.81,790.25c0,3.39-2.75,6.15-6.15,6.15c-3.39,0-6.15-2.75-6.15-6.15c0-3.39,2.75-6.15,6.15-6.15
		C713.06,784.11,715.81,786.86,715.81,790.25z"/>
	<path class="st0" d="M695.41,793.36c0,3.39-2.75,6.15-6.15,6.15c-3.39,0-6.15-2.75-6.15-6.15c0-3.39,2.75-6.15,6.15-6.15
		C692.66,787.22,695.41,789.97,695.41,793.36z"/>
	<path class="st0" d="M736.21,796.47c0,3.39-2.75,6.15-6.15,6.15c-3.39,0-6.15-2.75-6.15-6.15s2.75-6.15,6.15-6.15
		C733.45,790.32,736.21,793.08,736.21,796.47z"/>
	<path d="M746.24,573.36H563.36c-6.7,0-12.13-5.43-12.13-12.13v-23.54c0-6.7,5.43-12.13,12.13-12.13h182.88
		c6.7,0,12.13,5.43,12.13,12.13v23.54C758.37,567.92,752.94,573.36,746.24,573.36z"/>
	<circle cx="452.96" cy="896.96" r="11.11"/>
	<circle class="st8" cx="486.56" cy="896.96" r="11.11"/>
	<circle class="st9" cx="520.15" cy="896.96" r="11.11"/>
	<path class="st9" d="M747.26,908.07H656.4c-6.11,0-11.11-5-11.11-11.11l0,0c0-6.11,5-11.11,11.11-11.11h90.86
		c6.11,0,11.11,5,11.11,11.11l0,0C758.37,903.07,753.37,908.07,747.26,908.07z"/>
	<rect x="420.85" y="850.09" width="358.52" height="2.81"/>
</g>
</svg>
