<?xml version="1.0" encoding="utf-8"?>
<!-- Generator: Adobe Illustrator 27.1.0, SVG Export Plug-In . SVG Version: 6.00 Build 0)  -->
<svg version="1.1" id="Layer_1" xmlns="http://www.w3.org/2000/svg" xmlns:xlink="http://www.w3.org/1999/xlink" x="0px" y="0px"
	 viewBox="0 0 1200 1200" style="enable-background:new 0 0 1200 1200;" xml:space="preserve">
<style type="text/css">
	.st0{fill:#231F20;}
	.st1{fill:#A7A9AC;}
	.st2{fill:#FFFFFF;}
	.st3{fill:#ACA8EF;}
	.st4{opacity:0.5;fill:#FFFFFF;}
	.st5{fill:#808285;}
	.st6{fill:#58595B;}
	.st7{fill:#F7ACB4;}
	.st8{fill:#282824;}
</style>
<g>
	<g>
		<g>
			<g>
				<rect x="672.38" y="243.03" class="st0" width="309.46" height="388.3"/>
				<rect x="529.56" y="243.03" class="st1" width="330.29" height="388.3"/>
				<g>
					<path class="st2" d="M589.78,431.99c0-57.52,46.62-104.15,104.14-104.15c57.53,0,104.15,46.63,104.15,104.15
						c0,57.51-46.62,104.14-104.15,104.14C636.4,536.12,589.78,489.5,589.78,431.99z"/>
					<path class="st0" d="M783.21,431.97c0,49.2-40.1,89.24-89.3,89.24c-23.68,0-45.34-9.35-61.32-24.44
						c-1.52-1.51-3.03-3.03-4.48-4.54c-2.4-2.6-4.61-5.31-6.64-8.22c-4.99-6.82-8.96-14.4-11.74-22.48
						c-3.28-9.28-5.05-19.2-5.05-29.56c0-49.19,40.04-89.29,89.23-89.29c23.12,0,44.21,8.9,60.12,23.36
						c6.25,5.69,11.69,12.32,16.11,19.57c1.83,2.97,3.53,6.07,4.99,9.28c0.88,1.9,1.7,3.93,2.46,5.88
						C781.19,410.5,783.21,420.99,783.21,431.97z"/>
				</g>
			</g>
			<g>
				<rect x="672.38" y="631.23" class="st0" width="309.46" height="388.31"/>
				<rect x="529.56" y="631.23" class="st1" width="330.29" height="388.31"/>
				<g>
					<path class="st2" d="M589.78,820.17c0-57.52,46.62-104.15,104.14-104.15c57.53,0,104.15,46.63,104.15,104.15
						c0,57.52-46.62,104.14-104.15,104.14C636.4,924.3,589.78,877.69,589.78,820.17z"/>
					<path class="st0" d="M693.91,909.43c-49.22,0-89.26-40.05-89.26-89.26c0-49.22,40.04-89.27,89.26-89.27
						c49.23,0,89.28,40.05,89.28,89.27C783.19,869.38,743.14,909.43,693.91,909.43z"/>
				</g>
			</g>
			<rect x="529.56" y="620.19" class="st3" width="452.28" height="12.64"/>
		</g>
		<path class="st4" d="M754.03,366.05l-144.3,95.49c2.78,8.07,6.75,15.66,11.74,22.48l148.66-98.39
			C765.72,378.36,760.28,371.73,754.03,366.05z M777.59,400.78l-144.99,95.98c-1.52-1.51-3.03-3.03-4.48-4.54l147.01-97.32
			L777.59,400.78z"/>
		<path class="st4" d="M755.37,755.35l-144.58,96.67c2.78,8.08,6.76,15.66,11.75,22.48l148.65-98.38
			C766.81,767.58,761.61,761.02,755.37,755.35z M778.64,791.26l-144.99,95.99c-1.51-1.51-3.03-3.02-4.48-4.54l147.01-97.31
			L778.64,791.26z"/>
	</g>
	<g>
		<g>
			<path class="st5" d="M534.65,422.63l18.29,63.83c2.7,9.43,12.84,17.07,22.65,17.07h49.34h15.79h49.34
				c9.81,0,19.95-7.64,22.65-17.07L731,422.63l-98.18,1.82L534.65,422.63z"/>
			<path class="st5" d="M701.89,448.28H563.75c-16.35,0-29.6-13.26-29.6-29.6c0-16.36,13.25-29.6,29.6-29.6h138.14
				c16.35,0,29.59,13.25,29.59,29.6C731.48,435.02,718.24,448.28,701.89,448.28z"/>
			<path class="st0" d="M719.63,418.69c0,7.59-4.79,14.1-11.54,16.58c-1.9,0.76-4.02,1.18-6.22,1.18H563.75
				c-9.77,0-17.76-7.99-17.76-17.76c0-9.83,7.99-17.76,17.76-17.76h138.12C711.69,400.93,719.63,408.86,719.63,418.69z"/>
			<path class="st6" d="M708.09,435.27c-1.9,0.76-4.02,1.18-6.22,1.18H596.19c1.25-13.91,7.52-26.4,17.05-35.52
				c10.12-9.77,23.85-15.69,38.96-15.69c15.1,0,28.82,5.92,38.95,15.69C700.39,409.81,706.61,421.82,708.09,435.27z"/>
			<polygon class="st0" points="556.85,431.01 643.19,431.01 588.92,494.64 			"/>
		</g>
		<g>
			<g>
				<g>
					<polygon class="st7" points="385.74,381.7 448.78,386.71 438.49,327.11 434.42,325.85 405.52,327.17 397.6,327.55 
						393.59,327.74 393.39,328.79 392.2,337.27 392.15,337.46 392.16,337.55 392.09,338.31 					"/>
					<g>
						<g>
							<g>
								<g>
									<path class="st7" d="M353.78,287.36l2.62-2.15c1.21,9.01,4.53,17.14,8.62,23.97c0.67,1.04,1.33,2.06,1.97,3.09
										c5.36,8.03,11.76,14.29,16.79,18.49c4.27,3.64,7.57,5.86,8.37,6.79c0.27,0.11,0.55,0.16,0.8,0.22
										c15.52,3.74,31.96,1.54,42.53-0.81c5.99-1.26,12.24-2.92,17.64-5.88c9.22-5.04,18.14-12.13,18.9-23.38
										c0.36-5.36-0.85-10.75-2.37-15.84c-2.02-6.95-4.5-14.01-7.48-20.59l-8.4-18.52c-3.75-8.14-9.37-14.86-16.13-19.88
										c-2.08-1.42-4.04-2.63-6.08-3.81l-1-0.47c-13.26-6.69-29.41-7.54-44.05-0.96l-4.46,1.98c-3.88,1.81-7.51,4-10.68,6.57
										c-1.63,1.33-3.24,2.76-4.66,4.31c-1.35,1.33-2.55,2.75-3.79,4.37c-0.81,1.07-1.61,2.1-2.32,3.23
										c-1.4,2.26-2.72,4.66-3.84,7.12c-1.05,2.37-1.92,4.82-2.61,7.39c-0.34,1.25-0.59,2.57-0.84,3.89
										C351.98,273.28,352.08,280.38,353.78,287.36z"/>
									<path class="st7" d="M467.71,266.38c1.28,0.42,2.39,1.31,2.88,2.59c1.06,2.82-1.98,4.35-3.9,5.54
										c-2.04,1.31-4.09,2.61-6.16,3.9c0,0-8.89-13.18-8.89-13.18c0.14,0.18,1.82,0.13,2.04,0.16c1.63,0.12,3.22,0.25,4.84,0.38
										C461.25,265.98,464.85,265.43,467.71,266.38z"/>
								</g>
							</g>
						</g>
						<g>
							<path class="st0" d="M456.48,291.23c-2.26,0-4.75-0.42-7.23-1.62c-0.71-0.34-1.01-1.2-0.67-1.91
								c0.34-0.71,1.2-1.02,1.91-0.67c6.75,3.26,13.86-0.53,13.93-0.57c0.7-0.38,1.57-0.12,1.95,0.57c0.38,0.69,0.12,1.57-0.57,1.95
								C465.56,289.11,461.58,291.23,456.48,291.23z"/>
							<path class="st0" d="M437.95,264.82c-0.1,0-0.2-0.01-0.3-0.03c-0.78-0.16-1.27-0.92-1.11-1.7
								c1.77-8.42,10.09-12.37,10.45-12.53c0.72-0.33,1.57-0.02,1.9,0.69c0.33,0.72,0.02,1.57-0.69,1.91
								c-0.07,0.03-7.38,3.53-8.85,10.52C439.21,264.35,438.61,264.82,437.95,264.82z"/>
							<path class="st0" d="M444.46,270.59c-0.56,0-1.08-0.32-1.32-0.87c-1.18-2.75,0.08-5.96,2.81-7.14
								c1.33-0.58,2.8-0.6,4.15-0.07c1.35,0.53,2.41,1.56,2.98,2.89c0.32,0.72-0.02,1.57-0.74,1.89c-0.72,0.31-1.57-0.02-1.89-0.74
								c-0.27-0.63-0.77-1.11-1.41-1.36c-0.64-0.25-1.33-0.24-1.95,0.03c-1.29,0.56-1.88,2.08-1.32,3.38
								c0.31,0.73-0.03,1.57-0.75,1.88C444.84,270.55,444.65,270.59,444.46,270.59z"/>
						</g>
						<path class="st0" d="M353.31,266.49c0.25-1.31,0.5-2.64,0.84-3.89c0.69-2.57,1.56-5.01,2.61-7.39
							c1.13-2.46,2.44-4.86,3.84-7.12c0.71-1.13,1.51-2.16,2.32-3.23c1.24-1.62,2.44-3.04,3.79-4.37c1.42-1.55,3.03-2.98,4.66-4.31
							c3.17-2.57,6.81-4.76,10.68-6.57l4.46-1.98c14.64-6.58,30.79-5.74,44.05,0.96l1,0.47c0.9,12.59-2.34,22.28-20.09,36.92
							c0,0,15.58,27.33,4.8,46.7l0.08-0.01c0,0-3.49,7.25-10.58,14.45c-3.61,3.74-8.11,7.35-13.58,10.15c-0.09-0.07-0.07,0-0.07,0
							c-0.77-0.66-4.08-2.88-8.34-6.51c-5.03-4.2-11.43-10.46-16.79-18.49c-0.65-1.03-1.31-2.05-1.97-3.09
							c-4.08-6.83-7.4-14.96-8.62-23.97l-2.62,2.15C352.08,280.38,351.98,273.28,353.31,266.49z"/>
						<path class="st0" d="M367.42,237.58c-10.31-31.62-44.29-48.9-75.91-38.6c-31.61,10.29-48.9,44.28-38.59,75.9
							c10.31,31.62,44.29,48.9,75.91,38.61C360.43,303.17,377.71,269.2,367.42,237.58z"/>
						<path class="st7" d="M396.31,298.26c2.73,8.37,11.27,13.09,19.09,10.55c7.8-2.53,11.92-11.39,9.19-19.77
							c-2.72-8.36-11.26-13.1-19.09-10.54C397.7,281.05,393.59,289.9,396.31,298.26z"/>
						<path class="st0" d="M410.26,300.19c-0.4,0-0.79-0.16-1.08-0.49c-0.52-0.59-0.47-1.5,0.13-2.02l4.26-3.75l-7.43-2.69
							c-0.74-0.27-1.13-1.09-0.86-1.84c0.27-0.74,1.09-1.13,1.84-0.86l9.71,3.52c0.48,0.17,0.83,0.58,0.92,1.08
							c0.09,0.5-0.08,1.01-0.46,1.34l-6.08,5.35C410.94,300.07,410.6,300.19,410.26,300.19z"/>
					</g>
				</g>
				<path class="st0" d="M429.74,337.59c-1.91,0-3.87-0.12-5.84-0.42c-0.78-0.12-1.32-0.85-1.2-1.63c0.12-0.78,0.83-1.33,1.63-1.2
					c10.72,1.63,21.92-2.45,22.04-2.49c0.74-0.27,1.57,0.1,1.84,0.85c0.27,0.74-0.1,1.57-0.85,1.84
					C446.97,334.69,438.98,337.59,429.74,337.59z"/>
			</g>
			<g>
				<g>
					<path class="st7" d="M287.22,969.85c-8.2,0-16.51-2.04-24.17-6.35c-23.77-13.37-32.2-43.48-18.82-67.25l86.39-153.55
						l28.09-88.95c8.21-26,35.95-40.42,61.96-32.22c26.01,8.22,40.43,35.96,32.22,61.96l-31.18,98.71L330.3,944.67
						C321.23,960.79,304.48,969.85,287.22,969.85z"/>
					<path class="st7" d="M542.9,979.73c-23.65,0-44.54-17.03-48.63-41.13L473.8,817.91l-33.44-126.22
						c-6.99-26.36,8.72-53.4,35.09-60.38c26.36-6.98,53.4,8.72,60.38,35.09l34.59,130.57l21.22,125.12
						c4.56,26.89-13.54,52.38-40.43,56.95C548.42,979.5,545.64,979.73,542.9,979.73z"/>
					<path class="st7" d="M380.27,654.62c-11.95,0-36.34-34.76-42.17-46.13l-41.71-81.2c-3.94-7.65-4.71-16.55-2.17-24.78
						l28.53-92.16c5.39-17.38,23.85-27.08,41.19-21.71c17.37,5.37,27.08,23.81,21.71,41.18l-24.56,79.35l35.55,69.26
						c8.31,16.16,1.93,36.02-14.24,44.32C377.61,625.2,385.33,654.62,380.27,654.62z"/>
					<path class="st7" d="M563.8,562.61c-11.52,0-22.59-5.38-29.69-14.9l-45.26-60.68c-12.22-16.41-8.85-39.6,7.55-51.84
						c16.39-12.22,39.61-8.85,51.83,7.54l30.52,40.92l54.27-13.56c19.85-4.96,39.94,7.1,44.91,26.95
						c4.95,19.84-7.12,39.95-26.96,44.92l-78.18,19.53C569.81,562.24,566.79,562.61,563.8,562.61z"/>
					<path class="st7" d="M549.52,437.24l-32.1-45.28c-2.74-3.86-6.19-6.91-10.01-9.19c-26.2-18.09-67.88-12.09-67.88-12.09h-55.95
						c-41.15,3.29-55.14,28.8-55.14,28.8l60.07,81.48l90.54-18.1l3.43-6.34l13.33,18.8c6.42,9.04,16.57,13.87,26.88,13.87
						c6.58,0,13.23-1.95,19.02-6.06C556.53,472.62,560.02,452.07,549.52,437.24z"/>
					<path class="st1" d="M315.8,424.47c0,0,108.76,34.29,219.2-6.87l41.97,55.96c0,0-136.05,63.42-277.63,10.15L315.8,424.47z"/>
					<polygon class="st7" points="368.74,508.95 367.93,582.2 516.89,585.5 505.37,505.66 					"/>
					<path class="st0" d="M444.5,710.57l-1.71-18.05l1.71,18.89l-101.27-8.23l24.1-130.23c20.22,6.13,78.61,19.76,148.86-1.45h0.4
						l34.04,132.8L444.5,710.57z"/>
					<path class="st1" d="M507.83,521.71c0,0,0.01,0,0.01,0l-0.01-0.01l-1.63-35.79l-52.23,2.13l-21.86-13.65l-21.08,15.41
						l-45.58,1.86l1.64,30.26l-0.26,0.19c0,0,75.49,11.37,138.68,0h2.33L507.83,521.71z"/>
					<path class="st8" d="M366.7,573.55c-0.08,0-0.16,0-0.24-0.01c-0.9-0.13-1.52-0.97-1.39-1.87c5.38-36.62-3.05-83.34-3.14-83.81
						c-0.16-0.89,0.43-1.75,1.32-1.92c0.88-0.17,1.75,0.42,1.92,1.32c0.09,0.47,8.62,47.73,3.16,84.88
						C368.2,572.97,367.5,573.55,366.7,573.55z"/>
					<path class="st8" d="M446.53,713.88c-0.72,0-1.37-0.47-1.58-1.19l-8.61-29.89l-42.74-3.21c-0.91-0.07-1.59-0.86-1.52-1.76
						c0.07-0.91,0.87-1.58,1.76-1.52l45.03,3.38l9.24,32.09c0.25,0.87-0.25,1.79-1.13,2.04
						C446.83,713.86,446.68,713.88,446.53,713.88z"/>
					<g>
						<g id="shoe_8_">
							<path class="st6" d="M510.81,1018.78c-10.7,0-19.33-8.67-19.26-19.36l0.22-48.55l0.06-5.04v-4.14l18.47,0.07l83.61,0.33
								c0.25,0.12,0.51,0.26,0.77,0.32c91.28,40.29,95.66,76.37,95.66,76.37H510.81z"/>
							<path class="st6" d="M510.3,941.76c0,0.07,0,0.07,0,0.07l-17.75,8.65l-0.77,0.39l0.06-5.04c-0.25-2.01-0.39-4.07-0.39-6.15
								v-21.55C504.16,923.44,509.85,940.34,510.3,941.76z"/>
							<path class="st6" d="M273.28,881.63c-1.36,2.63-0.03,0.05-0.03,0.05l-19.54-2.89l-0.86-0.12l2.88-4.12
								c0.94-1.8-0.91,1.53,0.26-0.17l13.72-25.52C277.21,860.41,273.7,880.2,273.28,881.63z"/>
							<path class="st6" d="M581.3,968.2c-3.67,0-7.36-1.23-10.38-3.77c-6.83-5.74-7.73-15.91-2-22.74l25.28-30.12
								c5.74-6.81,15.92-7.71,22.75-1.98c6.83,5.72,7.71,15.91,1.98,22.74l-25.28,30.14C590.46,966.25,585.89,968.2,581.3,968.2z"/>
						</g>
						<g>
							<path class="st0" d="M598.74,973.74c-0.89,0-1.77-0.36-2.41-1.08c-1.18-1.33-1.07-3.37,0.27-4.56l19.37-17.24
								c1.33-1.18,3.37-1.07,4.56,0.27c1.18,1.33,1.07,3.37-0.27,4.56l-19.37,17.24C600.27,973.47,599.5,973.74,598.74,973.74z"/>
							<path class="st0" d="M609.9,979.79c-0.89,0-1.78-0.36-2.41-1.08c-1.18-1.33-1.07-3.37,0.27-4.56l19.36-17.22
								c1.33-1.18,3.37-1.07,4.56,0.27c1.18,1.33,1.07,3.37-0.26,4.56l-19.36,17.22C611.42,979.52,610.66,979.79,609.9,979.79z"/>
							<path class="st0" d="M622,985.44c-0.89,0-1.78-0.36-2.41-1.08c-1.18-1.33-1.06-3.37,0.27-4.56l19.37-17.22
								c1.33-1.18,3.37-1.07,4.56,0.27c1.18,1.33,1.06,3.37-0.27,4.56l-19.37,17.22C623.52,985.17,622.76,985.44,622,985.44z"/>
						</g>
					</g>
					<path class="st8" d="M515.66,572.74c-0.8,0-1.5-0.58-1.63-1.4l-13.3-88.48c-0.14-0.9,0.48-1.74,1.38-1.87
						c0.91-0.15,1.74,0.49,1.87,1.38l13.3,88.48c0.14,0.9-0.49,1.74-1.38,1.87C515.82,572.74,515.74,572.74,515.66,572.74z"/>
				</g>
				<path class="st6" d="M203.6,944.06c0,0,20.03-46.64,52.95-69.69l88.89,42.79c0,0,34.02,74.63,26.33,98.77L203.6,944.06z"/>
				<path class="st0" d="M372.26,1016.26c-4.05,9.41-45.07,0.84-91.6-19.15c-46.55-20-80.99-43.87-76.94-53.3
					c4.06-9.43,45.07-0.85,91.62,19.14C341.87,982.97,376.31,1006.82,372.26,1016.26z"/>
				<path class="st6" d="M335.58,945.98c-3.6-0.78-6.93-2.74-9.36-5.86c-5.48-7.02-4.25-17.17,2.77-22.66L360,893.26
					c7.02-5.49,17.16-4.23,22.66,2.8c5.49,7.01,4.24,17.16-2.78,22.63l-31,24.22C344.95,945.96,340.07,946.92,335.58,945.98z"/>
				<path class="st0" d="M351.19,956.67c-1.12,0-2.21-0.58-2.82-1.6c-0.95-1.56-0.43-3.58,1.13-4.52l8.23-4.94
					c1.55-0.94,3.57-0.43,4.52,1.13c0.94,1.55,0.43,3.58-1.13,4.52l-8.23,4.93C352.35,956.53,351.77,956.67,351.19,956.67z"/>
				<path class="st0" d="M354.49,966.82c-1.12,0-2.21-0.58-2.83-1.6c-0.94-1.55-0.43-3.57,1.14-4.5l8.23-4.95
					c1.55-0.93,3.57-0.43,4.51,1.13c0.95,1.56,0.44,3.58-1.13,4.52l-8.22,4.93C355.65,966.68,355.06,966.82,354.49,966.82z"/>
				<path class="st0" d="M358.49,977.01c-1.1,0-2.19-0.56-2.81-1.6c-0.94-1.56-0.43-3.58,1.14-4.5l8.22-4.95
					c1.55-0.94,3.58-0.43,4.52,1.13c0.94,1.57,0.43,3.58-1.13,4.52l-8.24,4.95C359.66,976.87,359.07,977.01,358.49,977.01z"/>
				<path class="st7" d="M657.01,541.97c-4.08-0.38-7.8-0.55-11.58-2.44c-7.95-3.98-11.52-13.92-13.84-21.83
					c-3.07-10.48-5.03-21.66-1.66-32.36c1.56-4.99,3.92-10,7.12-14.17c5.09-6.66,13.11-10.67,16.28-18.81
					c0.96-2.45-0.04-5.21,3.11-6c2.25-0.54,5.58,0.96,7.01,2.65c2.06,2.44,2.31,6.04,2.66,9.06c0.85,6.87,1.94,13.85,10.45,13.85
					c8.22,0,14.81-18.94,23.04-15.64c8.24,3.28,4.94,18.93,1.65,23.85c1.08-1.45,3.42-4.32,5.52-3.15c1.93,1.08,1.91,7.25,1.72,9.2
					c-0.38,3.94-1.5,7.57-3.07,11.18c0.46-1.06,2.67-0.09,3.1,0.46c0.73,0.97,0.34,2.64,0.2,3.75c-0.29,2.47-0.9,4.87-1.82,7.2
					c-1.97,4.95-5.14,9.37-8.79,13.25c-9.82,10.47-25.88,21.41-40.77,19.98C657.24,541.99,657.13,541.98,657.01,541.97z"/>
				<path class="st8" d="M693.02,487.14c-0.61,0-1.2-0.35-1.49-0.94c-0.39-0.82-0.05-1.8,0.77-2.2c2.47-1.18,9.19-5.16,10.68-9.34
					c0.31-0.85,1.25-1.31,2.1-1c0.86,0.31,1.3,1.25,1,2.1c-2.25,6.32-11.95,11.01-12.36,11.21
					C693.5,487.09,693.26,487.14,693.02,487.14z"/>
				<path class="st8" d="M695.22,506.62c-0.61,0-1.2-0.35-1.49-0.94c-0.39-0.82-0.05-1.8,0.77-2.2c2.47-1.18,9.19-5.17,10.68-9.36
					c0.31-0.86,1.24-1.3,2.1-1c0.86,0.31,1.3,1.25,1,2.1c-2.26,6.33-11.95,11.03-12.36,11.23
					C695.7,506.57,695.45,506.62,695.22,506.62z"/>
			</g>
		</g>
	</g>
</g>
</svg>
