<?xml version="1.0" encoding="utf-8"?>
<!-- Generator: Adobe Illustrator 27.1.0, SVG Export Plug-In . SVG Version: 6.00 Build 0)  -->
<svg version="1.1" id="Layer_1" xmlns="http://www.w3.org/2000/svg" xmlns:xlink="http://www.w3.org/1999/xlink" x="0px" y="0px"
	 viewBox="0 0 1200 1200" style="enable-background:new 0 0 1200 1200;" xml:space="preserve">
<style type="text/css">
	.st0{fill:#939598;}
	.st1{fill:#BCBEC0;}
	.st2{fill:#414042;}
	.st3{fill:#6D6E71;}
	.st4{fill:#231F20;}
</style>
<g>
	<g>
		<g>
			<rect x="406.35" y="315" class="st0" width="55.68" height="51.75"/>
			<rect x="406.35" y="374.61" class="st0" width="55.68" height="51.74"/>
			<path class="st1" d="M454.19,426.35h298.02c27.24,0,49.4-22.16,49.4-49.4v-12.54c0-27.27-22.16-49.41-49.4-49.41H453.41v51.75
				h296.46v7.85H454.19V426.35z"/>
		</g>
		<g>
			<rect x="366.35" y="429.2" class="st2" width="66.96" height="62.23"/>
			<rect x="366.35" y="500.88" class="st2" width="66.96" height="62.23"/>
			<path class="st3" d="M423.88,563.11h358.33c32.75,0,59.41-26.65,59.41-59.4v-15.1c0-32.77-26.66-59.41-59.41-59.41H422.92v62.23
				h356.46v9.45H423.88V563.11z"/>
		</g>
	</g>
	<path class="st4" d="M325.62,543.39l80.61,384.41c4.35,20.73,25.05,37.55,46.24,37.55h302.65c21.19,0,42.16-16.75,46.85-37.41
		l87.28-384.54H325.62z M678.3,604.97h36.34c8.61,0,15.03,6.93,14.36,15.41c-0.66,8.39-8.03,15.11-16.46,15.11h-35.61
		c-8.43,0-15.03-6.72-14.73-15.11C662.49,611.9,669.71,604.97,678.3,604.97z M503.54,604.97h36.34c8.59,0,15.81,6.93,16.11,15.41
		c0.29,8.39-6.3,15.11-14.73,15.11h-35.61c-8.43,0-15.79-6.72-16.46-15.11C488.51,611.9,494.93,604.97,503.54,604.97z
		 M402.67,620.39c-1.15-8.48,4.87-15.41,13.48-15.41h36.34c8.61,0,16.21,6.93,16.99,15.41c0.78,8.39-5.42,15.11-13.86,15.11H420
		C411.56,635.5,403.82,628.78,402.67,620.39z M410.6,678.57c-1.07-7.84,4.75-14.23,13.03-14.23h34.93c8.28,0,15.56,6.39,16.29,14.23
		c0.7,7.75-5.27,13.97-13.4,13.97h-34.26C419.07,692.54,411.65,686.32,410.6,678.57z M417.94,732.46
		c-0.99-7.28,4.65-13.21,12.61-13.21h33.62c7.98,0,14.95,5.93,15.63,13.21c0.66,7.2-5.12,12.96-12.95,12.96h-33
		C426.03,745.42,418.93,739.65,417.94,732.46z M424.76,782.49c-0.92-6.76,4.55-12.28,12.22-12.28h32.41
		c7.68,0,14.39,5.52,15.01,12.28c0.62,6.69-4.98,12.07-12.52,12.07h-31.84C432.5,794.56,425.67,789.18,424.76,782.49z
		 M430.63,831.72c-0.86-6.32,4.44-11.5,11.88-11.5h31.37c7.44,0,13.92,5.18,14.5,11.5c0.59,6.26-4.85,11.32-12.17,11.32h-30.83
		C438.07,843.04,431.48,837.98,430.63,831.72z M480.27,890.48h-29.89c-7.08,0-13.46-4.73-14.26-10.62
		c-0.81-5.95,4.36-10.8,11.55-10.8h30.4c7.21,0,13.48,4.85,14.03,10.8C492.64,885.75,487.35,890.48,480.27,890.48z M507.63,664.34
		h34.93c8.27,0,15.19,6.39,15.46,14.23c0.27,7.75-6.08,13.97-14.19,13.97h-34.26c-8.11,0-15.18-6.22-15.79-13.97
		C493.17,670.72,499.36,664.34,507.63,664.34z M511.42,719.25h33.62c7.96,0,14.62,5.93,14.87,13.21c0.25,7.2-5.87,12.96-13.68,12.96
		h-33.01c-7.82,0-14.6-5.77-15.18-12.96C497.47,725.18,503.45,719.25,511.42,719.25z M514.93,770.21h32.41
		c7.68,0,14.08,5.52,14.32,12.28c0.23,6.69-5.69,12.07-13.22,12.07h-31.85c-7.54,0-14.08-5.38-14.6-12.07
		C501.47,775.73,507.25,770.21,514.93,770.21z M517.95,820.22h31.37c7.42,0,13.63,5.18,13.85,11.5c0.22,6.26-5.52,11.32-12.83,11.32
		h-30.83c-7.31,0-13.61-5.06-14.11-11.32C504.91,825.4,510.53,820.22,517.95,820.22z M552.16,890.48h-29.9
		c-7.07,0-13.18-4.73-13.66-10.62c-0.47-5.95,4.98-10.8,12.19-10.8h30.39c7.2,0,13.21,4.85,13.41,10.8
		C564.8,885.75,559.23,890.48,552.16,890.48z M624.04,890.48h-29.89c-7.08,0-12.91-4.73-13.03-10.62
		c-0.14-5.95,5.58-10.8,12.77-10.8h30.41c7.2,0,12.92,4.85,12.78,10.8C636.95,885.75,631.12,890.48,624.04,890.48z M624.5,843.04
		h-30.83c-7.3,0-13.33-5.06-13.46-11.32c-0.13-6.32,5.77-11.5,13.19-11.5h31.37c7.42,0,13.33,5.18,13.19,11.5
		C637.83,837.98,631.8,843.04,624.5,843.04z M625,794.56h-31.83c-7.55,0-13.77-5.38-13.91-12.07c-0.15-6.76,5.94-12.28,13.61-12.28
		h32.42c7.68,0,13.76,5.52,13.61,12.28C638.77,789.18,632.55,794.56,625,794.56z M625.58,745.42H592.6
		c-7.82,0-14.27-5.77-14.44-12.96c-0.16-7.28,6.16-13.21,14.12-13.21h33.62c7.96,0,14.27,5.93,14.12,13.21
		C639.86,739.65,633.4,745.42,625.58,745.42z M626.22,692.54h-34.25c-8.11,0-14.82-6.22-14.99-13.97
		c-0.18-7.84,6.38-14.23,14.66-14.23h34.91c8.28,0,14.84,6.39,14.66,14.23C641.04,686.32,634.33,692.54,626.22,692.54z M626.9,635.5
		h-35.62c-8.43,0-15.4-6.72-15.59-15.11c-0.18-8.48,6.62-15.41,15.23-15.41h36.34c8.6,0,15.41,6.93,15.23,15.41
		C642.3,628.78,635.33,635.5,626.9,635.5z M695.92,890.48h-29.9c-7.07,0-12.64-4.73-12.44-10.62c0.21-5.95,6.22-10.8,13.42-10.8
		h30.39c7.21,0,12.65,4.85,12.19,10.8C709.1,885.75,702.99,890.48,695.92,890.48z M698.65,843.04h-30.83
		c-7.31,0-13.04-5.06-12.83-11.32c0.22-6.32,6.44-11.5,13.85-11.5h31.37c7.43,0,13.04,5.18,12.54,11.5
		C712.27,837.98,705.96,843.04,698.65,843.04z M701.57,794.56h-31.85c-7.53,0-13.45-5.38-13.22-12.07
		c0.25-6.76,6.65-12.28,14.32-12.28h32.41c7.68,0,13.46,5.52,12.93,12.28C715.65,789.18,709.11,794.56,701.57,794.56z
		 M704.96,745.42h-33.01c-7.81,0-13.93-5.77-13.68-12.96c0.25-7.28,6.92-13.21,14.87-13.21h33.62c7.97,0,13.94,5.93,13.38,13.21
		C719.56,739.65,712.77,745.42,704.96,745.42z M708.61,692.54h-34.26c-8.11,0-14.47-6.22-14.19-13.97
		c0.27-7.84,7.19-14.23,15.46-14.23h34.93c8.27,0,14.46,6.39,13.84,14.23C723.78,686.32,716.71,692.54,708.61,692.54z M767.8,890.48
		h-29.89c-7.08,0-12.37-4.73-11.83-10.62c0.55-5.95,6.83-10.8,14.03-10.8h30.4c7.2,0,12.36,4.85,11.55,10.8
		C781.25,885.75,774.88,890.48,767.8,890.48z M772.8,843.04h-30.83c-7.3,0-12.75-5.06-12.17-11.32c0.58-6.32,7.07-11.5,14.5-11.5
		h31.37c7.44,0,12.74,5.18,11.88,11.5C786.7,837.98,780.11,843.04,772.8,843.04z M778.13,794.56h-31.84
		c-7.53,0-13.14-5.38-12.52-12.07c0.62-6.76,7.34-12.28,15.01-12.28h32.41c7.68,0,13.14,5.52,12.22,12.28
		C792.51,789.18,785.68,794.56,778.13,794.56z M784.32,745.42h-33c-7.81,0-13.61-5.77-12.95-12.96c0.67-7.28,7.67-13.21,15.63-13.21
		h33.62c7.96,0,13.59,5.93,12.61,13.21C799.25,739.65,792.14,745.42,784.32,745.42z M790.99,692.54h-34.26
		c-8.11,0-14.1-6.22-13.4-13.97c0.73-7.84,8.03-14.23,16.29-14.23h34.93c8.28,0,14.1,6.39,13.03,14.23
		C806.52,686.32,799.11,692.54,790.99,692.54z M798.18,635.5h-35.62c-8.43,0-14.64-6.72-13.86-15.11
		c0.78-8.48,8.39-15.41,16.99-15.41h36.34c8.61,0,14.63,6.93,13.48,15.41C814.36,628.78,806.63,635.5,798.18,635.5z"/>
</g>
</svg>
